%TF.GenerationSoftware,KiCad,Pcbnew,7.0.2*%
%TF.CreationDate,2023-04-22T23:51:56+05:30*%
%TF.ProjectId,Final circuit pcb file,46696e61-6c20-4636-9972-637569742070,rev?*%
%TF.SameCoordinates,Original*%
%TF.FileFunction,Soldermask,Top*%
%TF.FilePolarity,Negative*%
%FSLAX46Y46*%
G04 Gerber Fmt 4.6, Leading zero omitted, Abs format (unit mm)*
G04 Created by KiCad (PCBNEW 7.0.2) date 2023-04-22 23:51:56*
%MOMM*%
%LPD*%
G01*
G04 APERTURE LIST*
G04 Aperture macros list*
%AMRoundRect*
0 Rectangle with rounded corners*
0 $1 Rounding radius*
0 $2 $3 $4 $5 $6 $7 $8 $9 X,Y pos of 4 corners*
0 Add a 4 corners polygon primitive as box body*
4,1,4,$2,$3,$4,$5,$6,$7,$8,$9,$2,$3,0*
0 Add four circle primitives for the rounded corners*
1,1,$1+$1,$2,$3*
1,1,$1+$1,$4,$5*
1,1,$1+$1,$6,$7*
1,1,$1+$1,$8,$9*
0 Add four rect primitives between the rounded corners*
20,1,$1+$1,$2,$3,$4,$5,0*
20,1,$1+$1,$4,$5,$6,$7,0*
20,1,$1+$1,$6,$7,$8,$9,0*
20,1,$1+$1,$8,$9,$2,$3,0*%
G04 Aperture macros list end*
%ADD10C,1.600000*%
%ADD11R,1.600000X1.600000*%
%ADD12O,1.600000X1.600000*%
%ADD13C,2.100000*%
%ADD14R,2.000000X2.000000*%
%ADD15O,2.000000X2.000000*%
%ADD16RoundRect,0.250000X-0.650000X-1.550000X0.650000X-1.550000X0.650000X1.550000X-0.650000X1.550000X0*%
%ADD17O,1.800000X3.600000*%
%ADD18C,1.400000*%
%ADD19O,1.400000X1.400000*%
%ADD20R,1.700000X1.700000*%
%ADD21O,1.700000X1.700000*%
%ADD22R,1.275000X1.800000*%
%ADD23O,1.275000X1.800000*%
%ADD24C,2.800000*%
%ADD25O,2.800000X2.800000*%
%ADD26R,0.850000X0.850000*%
%ADD27O,0.850000X0.850000*%
%ADD28R,3.200000X3.200000*%
%ADD29O,3.200000X3.200000*%
G04 APERTURE END LIST*
D10*
%TO.C,R4*%
X109240000Y-101600000D03*
X116840000Y-101600000D03*
%TD*%
D11*
%TO.C,U3*%
X109220000Y-55880000D03*
D12*
X106680000Y-55880000D03*
X104140000Y-55880000D03*
X101600000Y-55880000D03*
X99060000Y-55880000D03*
X96520000Y-55880000D03*
X93980000Y-55880000D03*
X91440000Y-55880000D03*
X91440000Y-63500000D03*
X93980000Y-63500000D03*
X96520000Y-63500000D03*
X99060000Y-63500000D03*
X101600000Y-63500000D03*
X104140000Y-63500000D03*
X106680000Y-63500000D03*
X109220000Y-63500000D03*
%TD*%
D13*
%TO.C,H1*%
X27940000Y-27940000D03*
%TD*%
D14*
%TO.C,C1*%
X111880000Y-76442500D03*
D15*
X126880000Y-76442500D03*
%TD*%
D11*
%TO.C,U2*%
X81280000Y-53340000D03*
D12*
X78740000Y-53340000D03*
X76200000Y-53340000D03*
X73660000Y-53340000D03*
X71120000Y-53340000D03*
X68580000Y-53340000D03*
X66040000Y-53340000D03*
X63500000Y-53340000D03*
X63500000Y-60960000D03*
X66040000Y-60960000D03*
X68580000Y-60960000D03*
X71120000Y-60960000D03*
X73660000Y-60960000D03*
X76200000Y-60960000D03*
X78740000Y-60960000D03*
X81280000Y-60960000D03*
%TD*%
D16*
%TO.C,J6*%
X75240000Y-111760000D03*
D17*
X78740000Y-111760000D03*
%TD*%
D18*
%TO.C,R6*%
X60960000Y-106680000D03*
D19*
X62860000Y-106680000D03*
%TD*%
D10*
%TO.C,R3*%
X109240000Y-45720000D03*
X116840000Y-45720000D03*
%TD*%
%TO.C,L1*%
X88860000Y-68880000D03*
D12*
X99020000Y-68880000D03*
%TD*%
D20*
%TO.C,J1*%
X54640000Y-37420000D03*
D21*
X52100000Y-37420000D03*
%TD*%
D22*
%TO.C,U1*%
X92260000Y-99060000D03*
D23*
X93960000Y-99060000D03*
X95660000Y-99060000D03*
X97360000Y-99060000D03*
X99060000Y-99060000D03*
%TD*%
D24*
%TO.C,R1*%
X91440000Y-81280000D03*
D25*
X106680000Y-81280000D03*
%TD*%
D13*
%TO.C,H2*%
X27940000Y-121920000D03*
%TD*%
%TO.C,H4*%
X132080000Y-121920000D03*
%TD*%
D18*
%TO.C,R2*%
X60910000Y-95280000D03*
D19*
X62810000Y-95280000D03*
%TD*%
D26*
%TO.C,J5*%
X116840000Y-59960000D03*
D27*
X116840000Y-60960000D03*
X116840000Y-61960000D03*
%TD*%
D11*
%TO.C,A1*%
X43180000Y-48260000D03*
D12*
X43180000Y-50800000D03*
X43180000Y-53340000D03*
X43180000Y-55880000D03*
X43180000Y-58420000D03*
X43180000Y-60960000D03*
X43180000Y-63500000D03*
X43180000Y-66040000D03*
X43180000Y-68580000D03*
X43180000Y-71120000D03*
X43180000Y-73660000D03*
X43180000Y-76200000D03*
X43180000Y-78740000D03*
X43180000Y-81280000D03*
X43180000Y-83820000D03*
X58420000Y-83820000D03*
X58420000Y-81280000D03*
X58420000Y-78740000D03*
X58420000Y-76200000D03*
X58420000Y-73660000D03*
X58420000Y-71120000D03*
X58420000Y-68580000D03*
X58420000Y-66040000D03*
X58420000Y-63500000D03*
X58420000Y-60960000D03*
X58420000Y-58420000D03*
X58420000Y-55880000D03*
X58420000Y-53340000D03*
X58420000Y-50800000D03*
X58420000Y-48260000D03*
%TD*%
D20*
%TO.C,J4*%
X100300000Y-109900000D03*
D21*
X102840000Y-109900000D03*
%TD*%
D28*
%TO.C,D1*%
X70560000Y-100310000D03*
D29*
X85800000Y-100310000D03*
%TD*%
D20*
%TO.C,J3*%
X90760000Y-29180000D03*
D21*
X90760000Y-31720000D03*
%TD*%
D20*
%TO.C,J2*%
X49500000Y-102280000D03*
D21*
X52040000Y-102280000D03*
%TD*%
D13*
%TO.C,H3*%
X132080000Y-27940000D03*
%TD*%
D14*
%TO.C,C2*%
X104260000Y-68822500D03*
D15*
X119260000Y-68822500D03*
%TD*%
D18*
%TO.C,R5*%
X60960000Y-101600000D03*
D19*
X62860000Y-101600000D03*
%TD*%
M02*
