M48
; DRILL file {KiCad 7.0.2} date Sat Apr 22 23:51:43 2023
; FORMAT={-:-/ absolute / inch / decimal}
; #@! TF.CreationDate,2023-04-22T23:51:43+05:30
; #@! TF.GenerationSoftware,Kicad,Pcbnew,7.0.2
; #@! TF.FileFunction,Plated,1,2,PTH
FMAT,2
INCH
; #@! TA.AperFunction,Plated,PTH,ComponentDrill
T1C0.0197
; #@! TA.AperFunction,Plated,PTH,ComponentDrill
T2C0.0276
; #@! TA.AperFunction,Plated,PTH,ComponentDrill
T3C0.0315
; #@! TA.AperFunction,Plated,PTH,ComponentDrill
T4C0.0394
; #@! TA.AperFunction,Plated,PTH,ComponentDrill
T5C0.0433
; #@! TA.AperFunction,Plated,PTH,ComponentDrill
T6C0.0472
; #@! TA.AperFunction,Plated,PTH,ComponentDrill
T7C0.0551
; #@! TA.AperFunction,Plated,PTH,ComponentDrill
T8C0.0630
%
G90
G05
T1
X4.6Y-2.3606
X4.6Y-2.4
X4.6Y-2.4394
T2
X2.398Y-3.7512
X2.4Y-4.0
X2.4Y-4.2
X2.4728Y-3.7512
X2.4748Y-4.0
X2.4748Y-4.2
T3
X2.5Y-2.1
X2.5Y-2.4
X2.6Y-2.1
X2.6Y-2.4
X2.7Y-2.1
X2.7Y-2.4
X2.8Y-2.1
X2.8Y-2.4
X2.9Y-2.1
X2.9Y-2.4
X3.0Y-2.1
X3.0Y-2.4
X3.1Y-2.1
X3.1Y-2.4
X3.2Y-2.1
X3.2Y-2.4
X3.4984Y-2.7118
X3.6Y-2.2
X3.6Y-2.5
X3.7Y-2.2
X3.7Y-2.5
X3.8Y-2.2
X3.8Y-2.5
X3.8984Y-2.7118
X3.9Y-2.2
X3.9Y-2.5
X4.0Y-2.2
X4.0Y-2.5
X4.1Y-2.2
X4.1Y-2.5
X4.2Y-2.2
X4.2Y-2.5
X4.3Y-2.2
X4.3Y-2.5
X4.3008Y-1.8
X4.3008Y-4.0
X4.6Y-1.8
X4.6Y-4.0
T4
X1.7Y-1.9
X1.7Y-2.0
X1.7Y-2.1
X1.7Y-2.2
X1.7Y-2.3
X1.7Y-2.4
X1.7Y-2.5
X1.7Y-2.6
X1.7Y-2.7
X1.7Y-2.8
X1.7Y-2.9
X1.7Y-3.0
X1.7Y-3.1
X1.7Y-3.2
X1.7Y-3.3
X1.9488Y-4.0268
X2.0488Y-4.0268
X2.0512Y-1.4732
X2.1512Y-1.4732
X2.3Y-1.9
X2.3Y-2.0
X2.3Y-2.1
X2.3Y-2.2
X2.3Y-2.3
X2.3Y-2.4
X2.3Y-2.5
X2.3Y-2.6
X2.3Y-2.7
X2.3Y-2.8
X2.3Y-2.9
X2.3Y-3.0
X2.3Y-3.1
X2.3Y-3.2
X2.3Y-3.3
X3.5732Y-1.1488
X3.5732Y-1.2488
X3.9488Y-4.3268
X4.0488Y-4.3268
X4.1047Y-2.7095
X4.4047Y-3.0095
X4.6953Y-2.7095
X4.9953Y-3.0095
T5
X3.6323Y-3.9
X3.6992Y-3.9
X3.7661Y-3.9
X3.8331Y-3.9
X3.9Y-3.9
T6
X2.9622Y-4.4
X3.1Y-4.4
T7
X3.6Y-3.2
X4.2Y-3.2
T8
X2.778Y-3.9492
X3.378Y-3.9492
T0
M30
