%TF.GenerationSoftware,KiCad,Pcbnew,7.0.2*%
%TF.CreationDate,2023-04-22T23:51:44+05:30*%
%TF.ProjectId,Final circuit pcb file,46696e61-6c20-4636-9972-637569742070,rev?*%
%TF.SameCoordinates,Original*%
%TF.FileFunction,Drillmap*%
%TF.FilePolarity,Positive*%
%FSLAX45Y45*%
G04 Gerber Fmt 4.5, Leading zero omitted, Abs format (unit mm)*
G04 Created by KiCad (PCBNEW 7.0.2) date 2023-04-22 23:51:44*
%MOMM*%
%LPD*%
G01*
G04 APERTURE LIST*
%ADD10C,0.010000*%
%ADD11C,0.200000*%
%ADD12C,0.210000*%
G04 APERTURE END LIST*
D10*
X2794000Y-2286000D02*
G75*
G03*
X2286000Y-2794000I0J-508000D01*
G01*
X13462000Y-2286000D02*
X3556000Y-2286000D01*
X2286000Y-2794000D02*
X2286000Y-12446000D01*
X2540000Y-12700000D02*
X13462000Y-12700000D01*
X13716000Y-2540000D02*
G75*
G03*
X13462000Y-2286000I-508000J-254000D01*
G01*
X3556000Y-2286000D02*
X2794000Y-2286000D01*
X2286000Y-12446000D02*
G75*
G03*
X2540000Y-12700000I508000J254000D01*
G01*
X13716000Y-12446000D02*
X13716000Y-2540000D01*
X13462000Y-12700000D02*
G75*
G03*
X13716000Y-12446000I-254000J508000D01*
G01*
D11*
D12*
X2689000Y-2689000D02*
X2899000Y-2899000D01*
X2899000Y-2689000D02*
X2689000Y-2899000D01*
X2689000Y-12087000D02*
X2899000Y-12297000D01*
X2899000Y-12087000D02*
X2689000Y-12297000D01*
X13103000Y-2689000D02*
X13313000Y-2899000D01*
X13313000Y-2689000D02*
X13103000Y-2899000D01*
X13103000Y-12087000D02*
X13313000Y-12297000D01*
X13313000Y-12087000D02*
X13103000Y-12297000D01*
D11*
X2533119Y-13013024D02*
X2533119Y-12813024D01*
X2533119Y-12813024D02*
X2580738Y-12813024D01*
X2580738Y-12813024D02*
X2609310Y-12822547D01*
X2609310Y-12822547D02*
X2628357Y-12841595D01*
X2628357Y-12841595D02*
X2637881Y-12860643D01*
X2637881Y-12860643D02*
X2647405Y-12898738D01*
X2647405Y-12898738D02*
X2647405Y-12927309D01*
X2647405Y-12927309D02*
X2637881Y-12965405D01*
X2637881Y-12965405D02*
X2628357Y-12984452D01*
X2628357Y-12984452D02*
X2609310Y-13003500D01*
X2609310Y-13003500D02*
X2580738Y-13013024D01*
X2580738Y-13013024D02*
X2533119Y-13013024D01*
X2733119Y-13013024D02*
X2733119Y-12879690D01*
X2733119Y-12917786D02*
X2742643Y-12898738D01*
X2742643Y-12898738D02*
X2752167Y-12889214D01*
X2752167Y-12889214D02*
X2771214Y-12879690D01*
X2771214Y-12879690D02*
X2790262Y-12879690D01*
X2856928Y-13013024D02*
X2856928Y-12879690D01*
X2856928Y-12813024D02*
X2847405Y-12822547D01*
X2847405Y-12822547D02*
X2856928Y-12832071D01*
X2856928Y-12832071D02*
X2866452Y-12822547D01*
X2866452Y-12822547D02*
X2856928Y-12813024D01*
X2856928Y-12813024D02*
X2856928Y-12832071D01*
X2980738Y-13013024D02*
X2961690Y-13003500D01*
X2961690Y-13003500D02*
X2952167Y-12984452D01*
X2952167Y-12984452D02*
X2952167Y-12813024D01*
X3085500Y-13013024D02*
X3066452Y-13003500D01*
X3066452Y-13003500D02*
X3056928Y-12984452D01*
X3056928Y-12984452D02*
X3056928Y-12813024D01*
X3314071Y-13013024D02*
X3314071Y-12813024D01*
X3314071Y-12813024D02*
X3380738Y-12955881D01*
X3380738Y-12955881D02*
X3447405Y-12813024D01*
X3447405Y-12813024D02*
X3447405Y-13013024D01*
X3628357Y-13013024D02*
X3628357Y-12908262D01*
X3628357Y-12908262D02*
X3618833Y-12889214D01*
X3618833Y-12889214D02*
X3599786Y-12879690D01*
X3599786Y-12879690D02*
X3561690Y-12879690D01*
X3561690Y-12879690D02*
X3542643Y-12889214D01*
X3628357Y-13003500D02*
X3609309Y-13013024D01*
X3609309Y-13013024D02*
X3561690Y-13013024D01*
X3561690Y-13013024D02*
X3542643Y-13003500D01*
X3542643Y-13003500D02*
X3533119Y-12984452D01*
X3533119Y-12984452D02*
X3533119Y-12965405D01*
X3533119Y-12965405D02*
X3542643Y-12946357D01*
X3542643Y-12946357D02*
X3561690Y-12936833D01*
X3561690Y-12936833D02*
X3609309Y-12936833D01*
X3609309Y-12936833D02*
X3628357Y-12927309D01*
X3723595Y-12879690D02*
X3723595Y-13079690D01*
X3723595Y-12889214D02*
X3742643Y-12879690D01*
X3742643Y-12879690D02*
X3780738Y-12879690D01*
X3780738Y-12879690D02*
X3799786Y-12889214D01*
X3799786Y-12889214D02*
X3809309Y-12898738D01*
X3809309Y-12898738D02*
X3818833Y-12917786D01*
X3818833Y-12917786D02*
X3818833Y-12974928D01*
X3818833Y-12974928D02*
X3809309Y-12993976D01*
X3809309Y-12993976D02*
X3799786Y-13003500D01*
X3799786Y-13003500D02*
X3780738Y-13013024D01*
X3780738Y-13013024D02*
X3742643Y-13013024D01*
X3742643Y-13013024D02*
X3723595Y-13003500D01*
X3904548Y-12993976D02*
X3914071Y-13003500D01*
X3914071Y-13003500D02*
X3904548Y-13013024D01*
X3904548Y-13013024D02*
X3895024Y-13003500D01*
X3895024Y-13003500D02*
X3904548Y-12993976D01*
X3904548Y-12993976D02*
X3904548Y-13013024D01*
X3904548Y-12889214D02*
X3914071Y-12898738D01*
X3914071Y-12898738D02*
X3904548Y-12908262D01*
X3904548Y-12908262D02*
X3895024Y-12898738D01*
X3895024Y-12898738D02*
X3904548Y-12889214D01*
X3904548Y-12889214D02*
X3904548Y-12908262D01*
X2085500Y-13240500D02*
X2285500Y-13440500D01*
X2285500Y-13240500D02*
X2085500Y-13440500D01*
X2523595Y-13252071D02*
X2533119Y-13242547D01*
X2533119Y-13242547D02*
X2552167Y-13233024D01*
X2552167Y-13233024D02*
X2599786Y-13233024D01*
X2599786Y-13233024D02*
X2618833Y-13242547D01*
X2618833Y-13242547D02*
X2628357Y-13252071D01*
X2628357Y-13252071D02*
X2637881Y-13271119D01*
X2637881Y-13271119D02*
X2637881Y-13290166D01*
X2637881Y-13290166D02*
X2628357Y-13318738D01*
X2628357Y-13318738D02*
X2514071Y-13433024D01*
X2514071Y-13433024D02*
X2637881Y-13433024D01*
X2723595Y-13413976D02*
X2733119Y-13423500D01*
X2733119Y-13423500D02*
X2723595Y-13433024D01*
X2723595Y-13433024D02*
X2714071Y-13423500D01*
X2714071Y-13423500D02*
X2723595Y-13413976D01*
X2723595Y-13413976D02*
X2723595Y-13433024D01*
X2923595Y-13433024D02*
X2809309Y-13433024D01*
X2866452Y-13433024D02*
X2866452Y-13233024D01*
X2866452Y-13233024D02*
X2847405Y-13261595D01*
X2847405Y-13261595D02*
X2828357Y-13280643D01*
X2828357Y-13280643D02*
X2809309Y-13290166D01*
X3047405Y-13233024D02*
X3066452Y-13233024D01*
X3066452Y-13233024D02*
X3085500Y-13242547D01*
X3085500Y-13242547D02*
X3095024Y-13252071D01*
X3095024Y-13252071D02*
X3104548Y-13271119D01*
X3104548Y-13271119D02*
X3114071Y-13309214D01*
X3114071Y-13309214D02*
X3114071Y-13356833D01*
X3114071Y-13356833D02*
X3104548Y-13394928D01*
X3104548Y-13394928D02*
X3095024Y-13413976D01*
X3095024Y-13413976D02*
X3085500Y-13423500D01*
X3085500Y-13423500D02*
X3066452Y-13433024D01*
X3066452Y-13433024D02*
X3047405Y-13433024D01*
X3047405Y-13433024D02*
X3028357Y-13423500D01*
X3028357Y-13423500D02*
X3018833Y-13413976D01*
X3018833Y-13413976D02*
X3009309Y-13394928D01*
X3009309Y-13394928D02*
X2999786Y-13356833D01*
X2999786Y-13356833D02*
X2999786Y-13309214D01*
X2999786Y-13309214D02*
X3009309Y-13271119D01*
X3009309Y-13271119D02*
X3018833Y-13252071D01*
X3018833Y-13252071D02*
X3028357Y-13242547D01*
X3028357Y-13242547D02*
X3047405Y-13233024D01*
X3237881Y-13233024D02*
X3256929Y-13233024D01*
X3256929Y-13233024D02*
X3275976Y-13242547D01*
X3275976Y-13242547D02*
X3285500Y-13252071D01*
X3285500Y-13252071D02*
X3295024Y-13271119D01*
X3295024Y-13271119D02*
X3304548Y-13309214D01*
X3304548Y-13309214D02*
X3304548Y-13356833D01*
X3304548Y-13356833D02*
X3295024Y-13394928D01*
X3295024Y-13394928D02*
X3285500Y-13413976D01*
X3285500Y-13413976D02*
X3275976Y-13423500D01*
X3275976Y-13423500D02*
X3256929Y-13433024D01*
X3256929Y-13433024D02*
X3237881Y-13433024D01*
X3237881Y-13433024D02*
X3218833Y-13423500D01*
X3218833Y-13423500D02*
X3209309Y-13413976D01*
X3209309Y-13413976D02*
X3199786Y-13394928D01*
X3199786Y-13394928D02*
X3190262Y-13356833D01*
X3190262Y-13356833D02*
X3190262Y-13309214D01*
X3190262Y-13309214D02*
X3199786Y-13271119D01*
X3199786Y-13271119D02*
X3209309Y-13252071D01*
X3209309Y-13252071D02*
X3218833Y-13242547D01*
X3218833Y-13242547D02*
X3237881Y-13233024D01*
X3390262Y-13433024D02*
X3390262Y-13299690D01*
X3390262Y-13318738D02*
X3399786Y-13309214D01*
X3399786Y-13309214D02*
X3418833Y-13299690D01*
X3418833Y-13299690D02*
X3447405Y-13299690D01*
X3447405Y-13299690D02*
X3466452Y-13309214D01*
X3466452Y-13309214D02*
X3475976Y-13328262D01*
X3475976Y-13328262D02*
X3475976Y-13433024D01*
X3475976Y-13328262D02*
X3485500Y-13309214D01*
X3485500Y-13309214D02*
X3504548Y-13299690D01*
X3504548Y-13299690D02*
X3533119Y-13299690D01*
X3533119Y-13299690D02*
X3552167Y-13309214D01*
X3552167Y-13309214D02*
X3561690Y-13328262D01*
X3561690Y-13328262D02*
X3561690Y-13433024D01*
X3656929Y-13433024D02*
X3656929Y-13299690D01*
X3656929Y-13318738D02*
X3666452Y-13309214D01*
X3666452Y-13309214D02*
X3685500Y-13299690D01*
X3685500Y-13299690D02*
X3714071Y-13299690D01*
X3714071Y-13299690D02*
X3733119Y-13309214D01*
X3733119Y-13309214D02*
X3742643Y-13328262D01*
X3742643Y-13328262D02*
X3742643Y-13433024D01*
X3742643Y-13328262D02*
X3752167Y-13309214D01*
X3752167Y-13309214D02*
X3771214Y-13299690D01*
X3771214Y-13299690D02*
X3799786Y-13299690D01*
X3799786Y-13299690D02*
X3818833Y-13309214D01*
X3818833Y-13309214D02*
X3828357Y-13328262D01*
X3828357Y-13328262D02*
X3828357Y-13433024D01*
X4218833Y-13223500D02*
X4047405Y-13480643D01*
X4475976Y-13233024D02*
X4495024Y-13233024D01*
X4495024Y-13233024D02*
X4514072Y-13242547D01*
X4514072Y-13242547D02*
X4523595Y-13252071D01*
X4523595Y-13252071D02*
X4533119Y-13271119D01*
X4533119Y-13271119D02*
X4542643Y-13309214D01*
X4542643Y-13309214D02*
X4542643Y-13356833D01*
X4542643Y-13356833D02*
X4533119Y-13394928D01*
X4533119Y-13394928D02*
X4523595Y-13413976D01*
X4523595Y-13413976D02*
X4514072Y-13423500D01*
X4514072Y-13423500D02*
X4495024Y-13433024D01*
X4495024Y-13433024D02*
X4475976Y-13433024D01*
X4475976Y-13433024D02*
X4456929Y-13423500D01*
X4456929Y-13423500D02*
X4447405Y-13413976D01*
X4447405Y-13413976D02*
X4437881Y-13394928D01*
X4437881Y-13394928D02*
X4428357Y-13356833D01*
X4428357Y-13356833D02*
X4428357Y-13309214D01*
X4428357Y-13309214D02*
X4437881Y-13271119D01*
X4437881Y-13271119D02*
X4447405Y-13252071D01*
X4447405Y-13252071D02*
X4456929Y-13242547D01*
X4456929Y-13242547D02*
X4475976Y-13233024D01*
X4628357Y-13413976D02*
X4637881Y-13423500D01*
X4637881Y-13423500D02*
X4628357Y-13433024D01*
X4628357Y-13433024D02*
X4618834Y-13423500D01*
X4618834Y-13423500D02*
X4628357Y-13413976D01*
X4628357Y-13413976D02*
X4628357Y-13433024D01*
X4761691Y-13233024D02*
X4780738Y-13233024D01*
X4780738Y-13233024D02*
X4799786Y-13242547D01*
X4799786Y-13242547D02*
X4809310Y-13252071D01*
X4809310Y-13252071D02*
X4818834Y-13271119D01*
X4818834Y-13271119D02*
X4828357Y-13309214D01*
X4828357Y-13309214D02*
X4828357Y-13356833D01*
X4828357Y-13356833D02*
X4818834Y-13394928D01*
X4818834Y-13394928D02*
X4809310Y-13413976D01*
X4809310Y-13413976D02*
X4799786Y-13423500D01*
X4799786Y-13423500D02*
X4780738Y-13433024D01*
X4780738Y-13433024D02*
X4761691Y-13433024D01*
X4761691Y-13433024D02*
X4742643Y-13423500D01*
X4742643Y-13423500D02*
X4733119Y-13413976D01*
X4733119Y-13413976D02*
X4723595Y-13394928D01*
X4723595Y-13394928D02*
X4714072Y-13356833D01*
X4714072Y-13356833D02*
X4714072Y-13309214D01*
X4714072Y-13309214D02*
X4723595Y-13271119D01*
X4723595Y-13271119D02*
X4733119Y-13252071D01*
X4733119Y-13252071D02*
X4742643Y-13242547D01*
X4742643Y-13242547D02*
X4761691Y-13233024D01*
X4942643Y-13318738D02*
X4923595Y-13309214D01*
X4923595Y-13309214D02*
X4914072Y-13299690D01*
X4914072Y-13299690D02*
X4904548Y-13280643D01*
X4904548Y-13280643D02*
X4904548Y-13271119D01*
X4904548Y-13271119D02*
X4914072Y-13252071D01*
X4914072Y-13252071D02*
X4923595Y-13242547D01*
X4923595Y-13242547D02*
X4942643Y-13233024D01*
X4942643Y-13233024D02*
X4980738Y-13233024D01*
X4980738Y-13233024D02*
X4999786Y-13242547D01*
X4999786Y-13242547D02*
X5009310Y-13252071D01*
X5009310Y-13252071D02*
X5018834Y-13271119D01*
X5018834Y-13271119D02*
X5018834Y-13280643D01*
X5018834Y-13280643D02*
X5009310Y-13299690D01*
X5009310Y-13299690D02*
X4999786Y-13309214D01*
X4999786Y-13309214D02*
X4980738Y-13318738D01*
X4980738Y-13318738D02*
X4942643Y-13318738D01*
X4942643Y-13318738D02*
X4923595Y-13328262D01*
X4923595Y-13328262D02*
X4914072Y-13337786D01*
X4914072Y-13337786D02*
X4904548Y-13356833D01*
X4904548Y-13356833D02*
X4904548Y-13394928D01*
X4904548Y-13394928D02*
X4914072Y-13413976D01*
X4914072Y-13413976D02*
X4923595Y-13423500D01*
X4923595Y-13423500D02*
X4942643Y-13433024D01*
X4942643Y-13433024D02*
X4980738Y-13433024D01*
X4980738Y-13433024D02*
X4999786Y-13423500D01*
X4999786Y-13423500D02*
X5009310Y-13413976D01*
X5009310Y-13413976D02*
X5018834Y-13394928D01*
X5018834Y-13394928D02*
X5018834Y-13356833D01*
X5018834Y-13356833D02*
X5009310Y-13337786D01*
X5009310Y-13337786D02*
X4999786Y-13328262D01*
X4999786Y-13328262D02*
X4980738Y-13318738D01*
X5095024Y-13252071D02*
X5104548Y-13242547D01*
X5104548Y-13242547D02*
X5123595Y-13233024D01*
X5123595Y-13233024D02*
X5171215Y-13233024D01*
X5171215Y-13233024D02*
X5190262Y-13242547D01*
X5190262Y-13242547D02*
X5199786Y-13252071D01*
X5199786Y-13252071D02*
X5209310Y-13271119D01*
X5209310Y-13271119D02*
X5209310Y-13290166D01*
X5209310Y-13290166D02*
X5199786Y-13318738D01*
X5199786Y-13318738D02*
X5085500Y-13433024D01*
X5085500Y-13433024D02*
X5209310Y-13433024D01*
X5275976Y-13233024D02*
X5409310Y-13233024D01*
X5409310Y-13233024D02*
X5323595Y-13433024D01*
X5475976Y-13233024D02*
X5475976Y-13271119D01*
X5552167Y-13233024D02*
X5552167Y-13271119D01*
X5847405Y-13509214D02*
X5837881Y-13499690D01*
X5837881Y-13499690D02*
X5818834Y-13471119D01*
X5818834Y-13471119D02*
X5809310Y-13452071D01*
X5809310Y-13452071D02*
X5799786Y-13423500D01*
X5799786Y-13423500D02*
X5790262Y-13375881D01*
X5790262Y-13375881D02*
X5790262Y-13337786D01*
X5790262Y-13337786D02*
X5799786Y-13290166D01*
X5799786Y-13290166D02*
X5809310Y-13261595D01*
X5809310Y-13261595D02*
X5818834Y-13242547D01*
X5818834Y-13242547D02*
X5837881Y-13213976D01*
X5837881Y-13213976D02*
X5847405Y-13204452D01*
X6009310Y-13299690D02*
X6009310Y-13433024D01*
X5961691Y-13223500D02*
X5914072Y-13366357D01*
X5914072Y-13366357D02*
X6037881Y-13366357D01*
X6266453Y-13433024D02*
X6266453Y-13233024D01*
X6352167Y-13433024D02*
X6352167Y-13328262D01*
X6352167Y-13328262D02*
X6342643Y-13309214D01*
X6342643Y-13309214D02*
X6323596Y-13299690D01*
X6323596Y-13299690D02*
X6295024Y-13299690D01*
X6295024Y-13299690D02*
X6275976Y-13309214D01*
X6275976Y-13309214D02*
X6266453Y-13318738D01*
X6475976Y-13433024D02*
X6456929Y-13423500D01*
X6456929Y-13423500D02*
X6447405Y-13413976D01*
X6447405Y-13413976D02*
X6437881Y-13394928D01*
X6437881Y-13394928D02*
X6437881Y-13337786D01*
X6437881Y-13337786D02*
X6447405Y-13318738D01*
X6447405Y-13318738D02*
X6456929Y-13309214D01*
X6456929Y-13309214D02*
X6475976Y-13299690D01*
X6475976Y-13299690D02*
X6504548Y-13299690D01*
X6504548Y-13299690D02*
X6523596Y-13309214D01*
X6523596Y-13309214D02*
X6533119Y-13318738D01*
X6533119Y-13318738D02*
X6542643Y-13337786D01*
X6542643Y-13337786D02*
X6542643Y-13394928D01*
X6542643Y-13394928D02*
X6533119Y-13413976D01*
X6533119Y-13413976D02*
X6523596Y-13423500D01*
X6523596Y-13423500D02*
X6504548Y-13433024D01*
X6504548Y-13433024D02*
X6475976Y-13433024D01*
X6656929Y-13433024D02*
X6637881Y-13423500D01*
X6637881Y-13423500D02*
X6628357Y-13404452D01*
X6628357Y-13404452D02*
X6628357Y-13233024D01*
X6809310Y-13423500D02*
X6790262Y-13433024D01*
X6790262Y-13433024D02*
X6752167Y-13433024D01*
X6752167Y-13433024D02*
X6733119Y-13423500D01*
X6733119Y-13423500D02*
X6723596Y-13404452D01*
X6723596Y-13404452D02*
X6723596Y-13328262D01*
X6723596Y-13328262D02*
X6733119Y-13309214D01*
X6733119Y-13309214D02*
X6752167Y-13299690D01*
X6752167Y-13299690D02*
X6790262Y-13299690D01*
X6790262Y-13299690D02*
X6809310Y-13309214D01*
X6809310Y-13309214D02*
X6818834Y-13328262D01*
X6818834Y-13328262D02*
X6818834Y-13347309D01*
X6818834Y-13347309D02*
X6723596Y-13366357D01*
X6895024Y-13423500D02*
X6914072Y-13433024D01*
X6914072Y-13433024D02*
X6952167Y-13433024D01*
X6952167Y-13433024D02*
X6971215Y-13423500D01*
X6971215Y-13423500D02*
X6980738Y-13404452D01*
X6980738Y-13404452D02*
X6980738Y-13394928D01*
X6980738Y-13394928D02*
X6971215Y-13375881D01*
X6971215Y-13375881D02*
X6952167Y-13366357D01*
X6952167Y-13366357D02*
X6923596Y-13366357D01*
X6923596Y-13366357D02*
X6904548Y-13356833D01*
X6904548Y-13356833D02*
X6895024Y-13337786D01*
X6895024Y-13337786D02*
X6895024Y-13328262D01*
X6895024Y-13328262D02*
X6904548Y-13309214D01*
X6904548Y-13309214D02*
X6923596Y-13299690D01*
X6923596Y-13299690D02*
X6952167Y-13299690D01*
X6952167Y-13299690D02*
X6971215Y-13309214D01*
X7047405Y-13509214D02*
X7056929Y-13499690D01*
X7056929Y-13499690D02*
X7075977Y-13471119D01*
X7075977Y-13471119D02*
X7085500Y-13452071D01*
X7085500Y-13452071D02*
X7095024Y-13423500D01*
X7095024Y-13423500D02*
X7104548Y-13375881D01*
X7104548Y-13375881D02*
X7104548Y-13337786D01*
X7104548Y-13337786D02*
X7095024Y-13290166D01*
X7095024Y-13290166D02*
X7085500Y-13261595D01*
X7085500Y-13261595D02*
X7075977Y-13242547D01*
X7075977Y-13242547D02*
X7056929Y-13213976D01*
X7056929Y-13213976D02*
X7047405Y-13204452D01*
X7409310Y-13509214D02*
X7399786Y-13499690D01*
X7399786Y-13499690D02*
X7380738Y-13471119D01*
X7380738Y-13471119D02*
X7371215Y-13452071D01*
X7371215Y-13452071D02*
X7361691Y-13423500D01*
X7361691Y-13423500D02*
X7352167Y-13375881D01*
X7352167Y-13375881D02*
X7352167Y-13337786D01*
X7352167Y-13337786D02*
X7361691Y-13290166D01*
X7361691Y-13290166D02*
X7371215Y-13261595D01*
X7371215Y-13261595D02*
X7380738Y-13242547D01*
X7380738Y-13242547D02*
X7399786Y-13213976D01*
X7399786Y-13213976D02*
X7409310Y-13204452D01*
X7485500Y-13299690D02*
X7485500Y-13433024D01*
X7485500Y-13318738D02*
X7495024Y-13309214D01*
X7495024Y-13309214D02*
X7514072Y-13299690D01*
X7514072Y-13299690D02*
X7542643Y-13299690D01*
X7542643Y-13299690D02*
X7561691Y-13309214D01*
X7561691Y-13309214D02*
X7571215Y-13328262D01*
X7571215Y-13328262D02*
X7571215Y-13433024D01*
X7695024Y-13433024D02*
X7675977Y-13423500D01*
X7675977Y-13423500D02*
X7666453Y-13413976D01*
X7666453Y-13413976D02*
X7656929Y-13394928D01*
X7656929Y-13394928D02*
X7656929Y-13337786D01*
X7656929Y-13337786D02*
X7666453Y-13318738D01*
X7666453Y-13318738D02*
X7675977Y-13309214D01*
X7675977Y-13309214D02*
X7695024Y-13299690D01*
X7695024Y-13299690D02*
X7723596Y-13299690D01*
X7723596Y-13299690D02*
X7742643Y-13309214D01*
X7742643Y-13309214D02*
X7752167Y-13318738D01*
X7752167Y-13318738D02*
X7761691Y-13337786D01*
X7761691Y-13337786D02*
X7761691Y-13394928D01*
X7761691Y-13394928D02*
X7752167Y-13413976D01*
X7752167Y-13413976D02*
X7742643Y-13423500D01*
X7742643Y-13423500D02*
X7723596Y-13433024D01*
X7723596Y-13433024D02*
X7695024Y-13433024D01*
X7818834Y-13299690D02*
X7895024Y-13299690D01*
X7847405Y-13233024D02*
X7847405Y-13404452D01*
X7847405Y-13404452D02*
X7856929Y-13423500D01*
X7856929Y-13423500D02*
X7875977Y-13433024D01*
X7875977Y-13433024D02*
X7895024Y-13433024D01*
X8114072Y-13299690D02*
X8114072Y-13499690D01*
X8114072Y-13309214D02*
X8133119Y-13299690D01*
X8133119Y-13299690D02*
X8171215Y-13299690D01*
X8171215Y-13299690D02*
X8190262Y-13309214D01*
X8190262Y-13309214D02*
X8199786Y-13318738D01*
X8199786Y-13318738D02*
X8209310Y-13337786D01*
X8209310Y-13337786D02*
X8209310Y-13394928D01*
X8209310Y-13394928D02*
X8199786Y-13413976D01*
X8199786Y-13413976D02*
X8190262Y-13423500D01*
X8190262Y-13423500D02*
X8171215Y-13433024D01*
X8171215Y-13433024D02*
X8133119Y-13433024D01*
X8133119Y-13433024D02*
X8114072Y-13423500D01*
X8323596Y-13433024D02*
X8304548Y-13423500D01*
X8304548Y-13423500D02*
X8295024Y-13404452D01*
X8295024Y-13404452D02*
X8295024Y-13233024D01*
X8485501Y-13433024D02*
X8485501Y-13328262D01*
X8485501Y-13328262D02*
X8475977Y-13309214D01*
X8475977Y-13309214D02*
X8456929Y-13299690D01*
X8456929Y-13299690D02*
X8418834Y-13299690D01*
X8418834Y-13299690D02*
X8399786Y-13309214D01*
X8485501Y-13423500D02*
X8466453Y-13433024D01*
X8466453Y-13433024D02*
X8418834Y-13433024D01*
X8418834Y-13433024D02*
X8399786Y-13423500D01*
X8399786Y-13423500D02*
X8390262Y-13404452D01*
X8390262Y-13404452D02*
X8390262Y-13385405D01*
X8390262Y-13385405D02*
X8399786Y-13366357D01*
X8399786Y-13366357D02*
X8418834Y-13356833D01*
X8418834Y-13356833D02*
X8466453Y-13356833D01*
X8466453Y-13356833D02*
X8485501Y-13347309D01*
X8552167Y-13299690D02*
X8628358Y-13299690D01*
X8580739Y-13233024D02*
X8580739Y-13404452D01*
X8580739Y-13404452D02*
X8590262Y-13423500D01*
X8590262Y-13423500D02*
X8609310Y-13433024D01*
X8609310Y-13433024D02*
X8628358Y-13433024D01*
X8771215Y-13423500D02*
X8752167Y-13433024D01*
X8752167Y-13433024D02*
X8714072Y-13433024D01*
X8714072Y-13433024D02*
X8695024Y-13423500D01*
X8695024Y-13423500D02*
X8685501Y-13404452D01*
X8685501Y-13404452D02*
X8685501Y-13328262D01*
X8685501Y-13328262D02*
X8695024Y-13309214D01*
X8695024Y-13309214D02*
X8714072Y-13299690D01*
X8714072Y-13299690D02*
X8752167Y-13299690D01*
X8752167Y-13299690D02*
X8771215Y-13309214D01*
X8771215Y-13309214D02*
X8780739Y-13328262D01*
X8780739Y-13328262D02*
X8780739Y-13347309D01*
X8780739Y-13347309D02*
X8685501Y-13366357D01*
X8952167Y-13433024D02*
X8952167Y-13233024D01*
X8952167Y-13423500D02*
X8933120Y-13433024D01*
X8933120Y-13433024D02*
X8895024Y-13433024D01*
X8895024Y-13433024D02*
X8875977Y-13423500D01*
X8875977Y-13423500D02*
X8866453Y-13413976D01*
X8866453Y-13413976D02*
X8856929Y-13394928D01*
X8856929Y-13394928D02*
X8856929Y-13337786D01*
X8856929Y-13337786D02*
X8866453Y-13318738D01*
X8866453Y-13318738D02*
X8875977Y-13309214D01*
X8875977Y-13309214D02*
X8895024Y-13299690D01*
X8895024Y-13299690D02*
X8933120Y-13299690D01*
X8933120Y-13299690D02*
X8952167Y-13309214D01*
X9028358Y-13509214D02*
X9037882Y-13499690D01*
X9037882Y-13499690D02*
X9056929Y-13471119D01*
X9056929Y-13471119D02*
X9066453Y-13452071D01*
X9066453Y-13452071D02*
X9075977Y-13423500D01*
X9075977Y-13423500D02*
X9085501Y-13375881D01*
X9085501Y-13375881D02*
X9085501Y-13337786D01*
X9085501Y-13337786D02*
X9075977Y-13290166D01*
X9075977Y-13290166D02*
X9066453Y-13261595D01*
X9066453Y-13261595D02*
X9056929Y-13242547D01*
X9056929Y-13242547D02*
X9037882Y-13213976D01*
X9037882Y-13213976D02*
X9028358Y-13204452D01*
M02*
