%TF.GenerationSoftware,KiCad,Pcbnew,7.0.2*%
%TF.CreationDate,2023-04-22T23:51:56+05:30*%
%TF.ProjectId,Final circuit pcb file,46696e61-6c20-4636-9972-637569742070,rev?*%
%TF.SameCoordinates,Original*%
%TF.FileFunction,Legend,Top*%
%TF.FilePolarity,Positive*%
%FSLAX46Y46*%
G04 Gerber Fmt 4.6, Leading zero omitted, Abs format (unit mm)*
G04 Created by KiCad (PCBNEW 7.0.2) date 2023-04-22 23:51:56*
%MOMM*%
%LPD*%
G01*
G04 APERTURE LIST*
%ADD10C,0.150000*%
%ADD11C,0.120000*%
G04 APERTURE END LIST*
D10*
%TO.C,R4*%
X112873333Y-96862619D02*
X112540000Y-96386428D01*
X112301905Y-96862619D02*
X112301905Y-95862619D01*
X112301905Y-95862619D02*
X112682857Y-95862619D01*
X112682857Y-95862619D02*
X112778095Y-95910238D01*
X112778095Y-95910238D02*
X112825714Y-95957857D01*
X112825714Y-95957857D02*
X112873333Y-96053095D01*
X112873333Y-96053095D02*
X112873333Y-96195952D01*
X112873333Y-96195952D02*
X112825714Y-96291190D01*
X112825714Y-96291190D02*
X112778095Y-96338809D01*
X112778095Y-96338809D02*
X112682857Y-96386428D01*
X112682857Y-96386428D02*
X112301905Y-96386428D01*
X113730476Y-96195952D02*
X113730476Y-96862619D01*
X113492381Y-95815000D02*
X113254286Y-96529285D01*
X113254286Y-96529285D02*
X113873333Y-96529285D01*
%TO.C,U3*%
X111012619Y-60451904D02*
X111822142Y-60451904D01*
X111822142Y-60451904D02*
X111917380Y-60404285D01*
X111917380Y-60404285D02*
X111965000Y-60356666D01*
X111965000Y-60356666D02*
X112012619Y-60261428D01*
X112012619Y-60261428D02*
X112012619Y-60070952D01*
X112012619Y-60070952D02*
X111965000Y-59975714D01*
X111965000Y-59975714D02*
X111917380Y-59928095D01*
X111917380Y-59928095D02*
X111822142Y-59880476D01*
X111822142Y-59880476D02*
X111012619Y-59880476D01*
X111012619Y-59499523D02*
X111012619Y-58880476D01*
X111012619Y-58880476D02*
X111393571Y-59213809D01*
X111393571Y-59213809D02*
X111393571Y-59070952D01*
X111393571Y-59070952D02*
X111441190Y-58975714D01*
X111441190Y-58975714D02*
X111488809Y-58928095D01*
X111488809Y-58928095D02*
X111584047Y-58880476D01*
X111584047Y-58880476D02*
X111822142Y-58880476D01*
X111822142Y-58880476D02*
X111917380Y-58928095D01*
X111917380Y-58928095D02*
X111965000Y-58975714D01*
X111965000Y-58975714D02*
X112012619Y-59070952D01*
X112012619Y-59070952D02*
X112012619Y-59356666D01*
X112012619Y-59356666D02*
X111965000Y-59451904D01*
X111965000Y-59451904D02*
X111917380Y-59499523D01*
%TO.C,H1*%
X27178095Y-25202619D02*
X27178095Y-24202619D01*
X27178095Y-24678809D02*
X27749523Y-24678809D01*
X27749523Y-25202619D02*
X27749523Y-24202619D01*
X28749523Y-25202619D02*
X28178095Y-25202619D01*
X28463809Y-25202619D02*
X28463809Y-24202619D01*
X28463809Y-24202619D02*
X28368571Y-24345476D01*
X28368571Y-24345476D02*
X28273333Y-24440714D01*
X28273333Y-24440714D02*
X28178095Y-24488333D01*
%TO.C,C1*%
X119213333Y-73439880D02*
X119165714Y-73487500D01*
X119165714Y-73487500D02*
X119022857Y-73535119D01*
X119022857Y-73535119D02*
X118927619Y-73535119D01*
X118927619Y-73535119D02*
X118784762Y-73487500D01*
X118784762Y-73487500D02*
X118689524Y-73392261D01*
X118689524Y-73392261D02*
X118641905Y-73297023D01*
X118641905Y-73297023D02*
X118594286Y-73106547D01*
X118594286Y-73106547D02*
X118594286Y-72963690D01*
X118594286Y-72963690D02*
X118641905Y-72773214D01*
X118641905Y-72773214D02*
X118689524Y-72677976D01*
X118689524Y-72677976D02*
X118784762Y-72582738D01*
X118784762Y-72582738D02*
X118927619Y-72535119D01*
X118927619Y-72535119D02*
X119022857Y-72535119D01*
X119022857Y-72535119D02*
X119165714Y-72582738D01*
X119165714Y-72582738D02*
X119213333Y-72630357D01*
X120165714Y-73535119D02*
X119594286Y-73535119D01*
X119880000Y-73535119D02*
X119880000Y-72535119D01*
X119880000Y-72535119D02*
X119784762Y-72677976D01*
X119784762Y-72677976D02*
X119689524Y-72773214D01*
X119689524Y-72773214D02*
X119594286Y-72820833D01*
%TO.C,U2*%
X83072619Y-57911904D02*
X83882142Y-57911904D01*
X83882142Y-57911904D02*
X83977380Y-57864285D01*
X83977380Y-57864285D02*
X84025000Y-57816666D01*
X84025000Y-57816666D02*
X84072619Y-57721428D01*
X84072619Y-57721428D02*
X84072619Y-57530952D01*
X84072619Y-57530952D02*
X84025000Y-57435714D01*
X84025000Y-57435714D02*
X83977380Y-57388095D01*
X83977380Y-57388095D02*
X83882142Y-57340476D01*
X83882142Y-57340476D02*
X83072619Y-57340476D01*
X83167857Y-56911904D02*
X83120238Y-56864285D01*
X83120238Y-56864285D02*
X83072619Y-56769047D01*
X83072619Y-56769047D02*
X83072619Y-56530952D01*
X83072619Y-56530952D02*
X83120238Y-56435714D01*
X83120238Y-56435714D02*
X83167857Y-56388095D01*
X83167857Y-56388095D02*
X83263095Y-56340476D01*
X83263095Y-56340476D02*
X83358333Y-56340476D01*
X83358333Y-56340476D02*
X83501190Y-56388095D01*
X83501190Y-56388095D02*
X84072619Y-56959523D01*
X84072619Y-56959523D02*
X84072619Y-56340476D01*
%TO.C,J6*%
X76656666Y-105772619D02*
X76656666Y-106486904D01*
X76656666Y-106486904D02*
X76609047Y-106629761D01*
X76609047Y-106629761D02*
X76513809Y-106725000D01*
X76513809Y-106725000D02*
X76370952Y-106772619D01*
X76370952Y-106772619D02*
X76275714Y-106772619D01*
X77561428Y-105772619D02*
X77370952Y-105772619D01*
X77370952Y-105772619D02*
X77275714Y-105820238D01*
X77275714Y-105820238D02*
X77228095Y-105867857D01*
X77228095Y-105867857D02*
X77132857Y-106010714D01*
X77132857Y-106010714D02*
X77085238Y-106201190D01*
X77085238Y-106201190D02*
X77085238Y-106582142D01*
X77085238Y-106582142D02*
X77132857Y-106677380D01*
X77132857Y-106677380D02*
X77180476Y-106725000D01*
X77180476Y-106725000D02*
X77275714Y-106772619D01*
X77275714Y-106772619D02*
X77466190Y-106772619D01*
X77466190Y-106772619D02*
X77561428Y-106725000D01*
X77561428Y-106725000D02*
X77609047Y-106677380D01*
X77609047Y-106677380D02*
X77656666Y-106582142D01*
X77656666Y-106582142D02*
X77656666Y-106344047D01*
X77656666Y-106344047D02*
X77609047Y-106248809D01*
X77609047Y-106248809D02*
X77561428Y-106201190D01*
X77561428Y-106201190D02*
X77466190Y-106153571D01*
X77466190Y-106153571D02*
X77275714Y-106153571D01*
X77275714Y-106153571D02*
X77180476Y-106201190D01*
X77180476Y-106201190D02*
X77132857Y-106248809D01*
X77132857Y-106248809D02*
X77085238Y-106344047D01*
%TO.C,R6*%
X61743333Y-105222619D02*
X61410000Y-104746428D01*
X61171905Y-105222619D02*
X61171905Y-104222619D01*
X61171905Y-104222619D02*
X61552857Y-104222619D01*
X61552857Y-104222619D02*
X61648095Y-104270238D01*
X61648095Y-104270238D02*
X61695714Y-104317857D01*
X61695714Y-104317857D02*
X61743333Y-104413095D01*
X61743333Y-104413095D02*
X61743333Y-104555952D01*
X61743333Y-104555952D02*
X61695714Y-104651190D01*
X61695714Y-104651190D02*
X61648095Y-104698809D01*
X61648095Y-104698809D02*
X61552857Y-104746428D01*
X61552857Y-104746428D02*
X61171905Y-104746428D01*
X62600476Y-104222619D02*
X62410000Y-104222619D01*
X62410000Y-104222619D02*
X62314762Y-104270238D01*
X62314762Y-104270238D02*
X62267143Y-104317857D01*
X62267143Y-104317857D02*
X62171905Y-104460714D01*
X62171905Y-104460714D02*
X62124286Y-104651190D01*
X62124286Y-104651190D02*
X62124286Y-105032142D01*
X62124286Y-105032142D02*
X62171905Y-105127380D01*
X62171905Y-105127380D02*
X62219524Y-105175000D01*
X62219524Y-105175000D02*
X62314762Y-105222619D01*
X62314762Y-105222619D02*
X62505238Y-105222619D01*
X62505238Y-105222619D02*
X62600476Y-105175000D01*
X62600476Y-105175000D02*
X62648095Y-105127380D01*
X62648095Y-105127380D02*
X62695714Y-105032142D01*
X62695714Y-105032142D02*
X62695714Y-104794047D01*
X62695714Y-104794047D02*
X62648095Y-104698809D01*
X62648095Y-104698809D02*
X62600476Y-104651190D01*
X62600476Y-104651190D02*
X62505238Y-104603571D01*
X62505238Y-104603571D02*
X62314762Y-104603571D01*
X62314762Y-104603571D02*
X62219524Y-104651190D01*
X62219524Y-104651190D02*
X62171905Y-104698809D01*
X62171905Y-104698809D02*
X62124286Y-104794047D01*
%TO.C,R3*%
X112873333Y-40982619D02*
X112540000Y-40506428D01*
X112301905Y-40982619D02*
X112301905Y-39982619D01*
X112301905Y-39982619D02*
X112682857Y-39982619D01*
X112682857Y-39982619D02*
X112778095Y-40030238D01*
X112778095Y-40030238D02*
X112825714Y-40077857D01*
X112825714Y-40077857D02*
X112873333Y-40173095D01*
X112873333Y-40173095D02*
X112873333Y-40315952D01*
X112873333Y-40315952D02*
X112825714Y-40411190D01*
X112825714Y-40411190D02*
X112778095Y-40458809D01*
X112778095Y-40458809D02*
X112682857Y-40506428D01*
X112682857Y-40506428D02*
X112301905Y-40506428D01*
X113206667Y-39982619D02*
X113825714Y-39982619D01*
X113825714Y-39982619D02*
X113492381Y-40363571D01*
X113492381Y-40363571D02*
X113635238Y-40363571D01*
X113635238Y-40363571D02*
X113730476Y-40411190D01*
X113730476Y-40411190D02*
X113778095Y-40458809D01*
X113778095Y-40458809D02*
X113825714Y-40554047D01*
X113825714Y-40554047D02*
X113825714Y-40792142D01*
X113825714Y-40792142D02*
X113778095Y-40887380D01*
X113778095Y-40887380D02*
X113730476Y-40935000D01*
X113730476Y-40935000D02*
X113635238Y-40982619D01*
X113635238Y-40982619D02*
X113349524Y-40982619D01*
X113349524Y-40982619D02*
X113254286Y-40935000D01*
X113254286Y-40935000D02*
X113206667Y-40887380D01*
%TO.C,L1*%
X93773333Y-66872619D02*
X93297143Y-66872619D01*
X93297143Y-66872619D02*
X93297143Y-65872619D01*
X94630476Y-66872619D02*
X94059048Y-66872619D01*
X94344762Y-66872619D02*
X94344762Y-65872619D01*
X94344762Y-65872619D02*
X94249524Y-66015476D01*
X94249524Y-66015476D02*
X94154286Y-66110714D01*
X94154286Y-66110714D02*
X94059048Y-66158333D01*
%TO.C,J1*%
X56872619Y-33373333D02*
X57586904Y-33373333D01*
X57586904Y-33373333D02*
X57729761Y-33420952D01*
X57729761Y-33420952D02*
X57825000Y-33516190D01*
X57825000Y-33516190D02*
X57872619Y-33659047D01*
X57872619Y-33659047D02*
X57872619Y-33754285D01*
X57872619Y-32373333D02*
X57872619Y-32944761D01*
X57872619Y-32659047D02*
X56872619Y-32659047D01*
X56872619Y-32659047D02*
X57015476Y-32754285D01*
X57015476Y-32754285D02*
X57110714Y-32849523D01*
X57110714Y-32849523D02*
X57158333Y-32944761D01*
%TO.C,U1*%
X94898095Y-94252619D02*
X94898095Y-95062142D01*
X94898095Y-95062142D02*
X94945714Y-95157380D01*
X94945714Y-95157380D02*
X94993333Y-95205000D01*
X94993333Y-95205000D02*
X95088571Y-95252619D01*
X95088571Y-95252619D02*
X95279047Y-95252619D01*
X95279047Y-95252619D02*
X95374285Y-95205000D01*
X95374285Y-95205000D02*
X95421904Y-95157380D01*
X95421904Y-95157380D02*
X95469523Y-95062142D01*
X95469523Y-95062142D02*
X95469523Y-94252619D01*
X96469523Y-95252619D02*
X95898095Y-95252619D01*
X96183809Y-95252619D02*
X96183809Y-94252619D01*
X96183809Y-94252619D02*
X96088571Y-94395476D01*
X96088571Y-94395476D02*
X95993333Y-94490714D01*
X95993333Y-94490714D02*
X95898095Y-94538333D01*
%TO.C,R1*%
X98893333Y-77772619D02*
X98560000Y-77296428D01*
X98321905Y-77772619D02*
X98321905Y-76772619D01*
X98321905Y-76772619D02*
X98702857Y-76772619D01*
X98702857Y-76772619D02*
X98798095Y-76820238D01*
X98798095Y-76820238D02*
X98845714Y-76867857D01*
X98845714Y-76867857D02*
X98893333Y-76963095D01*
X98893333Y-76963095D02*
X98893333Y-77105952D01*
X98893333Y-77105952D02*
X98845714Y-77201190D01*
X98845714Y-77201190D02*
X98798095Y-77248809D01*
X98798095Y-77248809D02*
X98702857Y-77296428D01*
X98702857Y-77296428D02*
X98321905Y-77296428D01*
X99845714Y-77772619D02*
X99274286Y-77772619D01*
X99560000Y-77772619D02*
X99560000Y-76772619D01*
X99560000Y-76772619D02*
X99464762Y-76915476D01*
X99464762Y-76915476D02*
X99369524Y-77010714D01*
X99369524Y-77010714D02*
X99274286Y-77058333D01*
%TO.C,H2*%
X27178095Y-119182619D02*
X27178095Y-118182619D01*
X27178095Y-118658809D02*
X27749523Y-118658809D01*
X27749523Y-119182619D02*
X27749523Y-118182619D01*
X28178095Y-118277857D02*
X28225714Y-118230238D01*
X28225714Y-118230238D02*
X28320952Y-118182619D01*
X28320952Y-118182619D02*
X28559047Y-118182619D01*
X28559047Y-118182619D02*
X28654285Y-118230238D01*
X28654285Y-118230238D02*
X28701904Y-118277857D01*
X28701904Y-118277857D02*
X28749523Y-118373095D01*
X28749523Y-118373095D02*
X28749523Y-118468333D01*
X28749523Y-118468333D02*
X28701904Y-118611190D01*
X28701904Y-118611190D02*
X28130476Y-119182619D01*
X28130476Y-119182619D02*
X28749523Y-119182619D01*
%TO.C,H4*%
X131318095Y-119182619D02*
X131318095Y-118182619D01*
X131318095Y-118658809D02*
X131889523Y-118658809D01*
X131889523Y-119182619D02*
X131889523Y-118182619D01*
X132794285Y-118515952D02*
X132794285Y-119182619D01*
X132556190Y-118135000D02*
X132318095Y-118849285D01*
X132318095Y-118849285D02*
X132937142Y-118849285D01*
%TO.C,R2*%
X61693333Y-93822619D02*
X61360000Y-93346428D01*
X61121905Y-93822619D02*
X61121905Y-92822619D01*
X61121905Y-92822619D02*
X61502857Y-92822619D01*
X61502857Y-92822619D02*
X61598095Y-92870238D01*
X61598095Y-92870238D02*
X61645714Y-92917857D01*
X61645714Y-92917857D02*
X61693333Y-93013095D01*
X61693333Y-93013095D02*
X61693333Y-93155952D01*
X61693333Y-93155952D02*
X61645714Y-93251190D01*
X61645714Y-93251190D02*
X61598095Y-93298809D01*
X61598095Y-93298809D02*
X61502857Y-93346428D01*
X61502857Y-93346428D02*
X61121905Y-93346428D01*
X62074286Y-92917857D02*
X62121905Y-92870238D01*
X62121905Y-92870238D02*
X62217143Y-92822619D01*
X62217143Y-92822619D02*
X62455238Y-92822619D01*
X62455238Y-92822619D02*
X62550476Y-92870238D01*
X62550476Y-92870238D02*
X62598095Y-92917857D01*
X62598095Y-92917857D02*
X62645714Y-93013095D01*
X62645714Y-93013095D02*
X62645714Y-93108333D01*
X62645714Y-93108333D02*
X62598095Y-93251190D01*
X62598095Y-93251190D02*
X62026667Y-93822619D01*
X62026667Y-93822619D02*
X62645714Y-93822619D01*
%TO.C,J5*%
X116506666Y-57862619D02*
X116506666Y-58576904D01*
X116506666Y-58576904D02*
X116459047Y-58719761D01*
X116459047Y-58719761D02*
X116363809Y-58815000D01*
X116363809Y-58815000D02*
X116220952Y-58862619D01*
X116220952Y-58862619D02*
X116125714Y-58862619D01*
X117459047Y-57862619D02*
X116982857Y-57862619D01*
X116982857Y-57862619D02*
X116935238Y-58338809D01*
X116935238Y-58338809D02*
X116982857Y-58291190D01*
X116982857Y-58291190D02*
X117078095Y-58243571D01*
X117078095Y-58243571D02*
X117316190Y-58243571D01*
X117316190Y-58243571D02*
X117411428Y-58291190D01*
X117411428Y-58291190D02*
X117459047Y-58338809D01*
X117459047Y-58338809D02*
X117506666Y-58434047D01*
X117506666Y-58434047D02*
X117506666Y-58672142D01*
X117506666Y-58672142D02*
X117459047Y-58767380D01*
X117459047Y-58767380D02*
X117411428Y-58815000D01*
X117411428Y-58815000D02*
X117316190Y-58862619D01*
X117316190Y-58862619D02*
X117078095Y-58862619D01*
X117078095Y-58862619D02*
X116982857Y-58815000D01*
X116982857Y-58815000D02*
X116935238Y-58767380D01*
%TO.C,A1*%
X50085714Y-43356904D02*
X50561904Y-43356904D01*
X49990476Y-43642619D02*
X50323809Y-42642619D01*
X50323809Y-42642619D02*
X50657142Y-43642619D01*
X51514285Y-43642619D02*
X50942857Y-43642619D01*
X51228571Y-43642619D02*
X51228571Y-42642619D01*
X51228571Y-42642619D02*
X51133333Y-42785476D01*
X51133333Y-42785476D02*
X51038095Y-42880714D01*
X51038095Y-42880714D02*
X50942857Y-42928333D01*
X49538095Y-83282619D02*
X49538095Y-84092142D01*
X49538095Y-84092142D02*
X49585714Y-84187380D01*
X49585714Y-84187380D02*
X49633333Y-84235000D01*
X49633333Y-84235000D02*
X49728571Y-84282619D01*
X49728571Y-84282619D02*
X49919047Y-84282619D01*
X49919047Y-84282619D02*
X50014285Y-84235000D01*
X50014285Y-84235000D02*
X50061904Y-84187380D01*
X50061904Y-84187380D02*
X50109523Y-84092142D01*
X50109523Y-84092142D02*
X50109523Y-83282619D01*
X50538095Y-84235000D02*
X50680952Y-84282619D01*
X50680952Y-84282619D02*
X50919047Y-84282619D01*
X50919047Y-84282619D02*
X51014285Y-84235000D01*
X51014285Y-84235000D02*
X51061904Y-84187380D01*
X51061904Y-84187380D02*
X51109523Y-84092142D01*
X51109523Y-84092142D02*
X51109523Y-83996904D01*
X51109523Y-83996904D02*
X51061904Y-83901666D01*
X51061904Y-83901666D02*
X51014285Y-83854047D01*
X51014285Y-83854047D02*
X50919047Y-83806428D01*
X50919047Y-83806428D02*
X50728571Y-83758809D01*
X50728571Y-83758809D02*
X50633333Y-83711190D01*
X50633333Y-83711190D02*
X50585714Y-83663571D01*
X50585714Y-83663571D02*
X50538095Y-83568333D01*
X50538095Y-83568333D02*
X50538095Y-83473095D01*
X50538095Y-83473095D02*
X50585714Y-83377857D01*
X50585714Y-83377857D02*
X50633333Y-83330238D01*
X50633333Y-83330238D02*
X50728571Y-83282619D01*
X50728571Y-83282619D02*
X50966666Y-83282619D01*
X50966666Y-83282619D02*
X51109523Y-83330238D01*
X51871428Y-83758809D02*
X52014285Y-83806428D01*
X52014285Y-83806428D02*
X52061904Y-83854047D01*
X52061904Y-83854047D02*
X52109523Y-83949285D01*
X52109523Y-83949285D02*
X52109523Y-84092142D01*
X52109523Y-84092142D02*
X52061904Y-84187380D01*
X52061904Y-84187380D02*
X52014285Y-84235000D01*
X52014285Y-84235000D02*
X51919047Y-84282619D01*
X51919047Y-84282619D02*
X51538095Y-84282619D01*
X51538095Y-84282619D02*
X51538095Y-83282619D01*
X51538095Y-83282619D02*
X51871428Y-83282619D01*
X51871428Y-83282619D02*
X51966666Y-83330238D01*
X51966666Y-83330238D02*
X52014285Y-83377857D01*
X52014285Y-83377857D02*
X52061904Y-83473095D01*
X52061904Y-83473095D02*
X52061904Y-83568333D01*
X52061904Y-83568333D02*
X52014285Y-83663571D01*
X52014285Y-83663571D02*
X51966666Y-83711190D01*
X51966666Y-83711190D02*
X51871428Y-83758809D01*
X51871428Y-83758809D02*
X51538095Y-83758809D01*
%TO.C,J4*%
X96992619Y-114613333D02*
X97706904Y-114613333D01*
X97706904Y-114613333D02*
X97849761Y-114660952D01*
X97849761Y-114660952D02*
X97945000Y-114756190D01*
X97945000Y-114756190D02*
X97992619Y-114899047D01*
X97992619Y-114899047D02*
X97992619Y-114994285D01*
X97325952Y-113708571D02*
X97992619Y-113708571D01*
X96945000Y-113946666D02*
X97659285Y-114184761D01*
X97659285Y-114184761D02*
X97659285Y-113565714D01*
%TO.C,D1*%
X77441905Y-97052619D02*
X77441905Y-96052619D01*
X77441905Y-96052619D02*
X77680000Y-96052619D01*
X77680000Y-96052619D02*
X77822857Y-96100238D01*
X77822857Y-96100238D02*
X77918095Y-96195476D01*
X77918095Y-96195476D02*
X77965714Y-96290714D01*
X77965714Y-96290714D02*
X78013333Y-96481190D01*
X78013333Y-96481190D02*
X78013333Y-96624047D01*
X78013333Y-96624047D02*
X77965714Y-96814523D01*
X77965714Y-96814523D02*
X77918095Y-96909761D01*
X77918095Y-96909761D02*
X77822857Y-97005000D01*
X77822857Y-97005000D02*
X77680000Y-97052619D01*
X77680000Y-97052619D02*
X77441905Y-97052619D01*
X78965714Y-97052619D02*
X78394286Y-97052619D01*
X78680000Y-97052619D02*
X78680000Y-96052619D01*
X78680000Y-96052619D02*
X78584762Y-96195476D01*
X78584762Y-96195476D02*
X78489524Y-96290714D01*
X78489524Y-96290714D02*
X78394286Y-96338333D01*
X70298095Y-98172619D02*
X70298095Y-97172619D01*
X70869523Y-98172619D02*
X70440952Y-97601190D01*
X70869523Y-97172619D02*
X70298095Y-97744047D01*
%TO.C,J3*%
X86046666Y-25872619D02*
X86046666Y-26586904D01*
X86046666Y-26586904D02*
X85999047Y-26729761D01*
X85999047Y-26729761D02*
X85903809Y-26825000D01*
X85903809Y-26825000D02*
X85760952Y-26872619D01*
X85760952Y-26872619D02*
X85665714Y-26872619D01*
X86427619Y-25872619D02*
X87046666Y-25872619D01*
X87046666Y-25872619D02*
X86713333Y-26253571D01*
X86713333Y-26253571D02*
X86856190Y-26253571D01*
X86856190Y-26253571D02*
X86951428Y-26301190D01*
X86951428Y-26301190D02*
X86999047Y-26348809D01*
X86999047Y-26348809D02*
X87046666Y-26444047D01*
X87046666Y-26444047D02*
X87046666Y-26682142D01*
X87046666Y-26682142D02*
X86999047Y-26777380D01*
X86999047Y-26777380D02*
X86951428Y-26825000D01*
X86951428Y-26825000D02*
X86856190Y-26872619D01*
X86856190Y-26872619D02*
X86570476Y-26872619D01*
X86570476Y-26872619D02*
X86475238Y-26825000D01*
X86475238Y-26825000D02*
X86427619Y-26777380D01*
%TO.C,J2*%
X46192619Y-106993333D02*
X46906904Y-106993333D01*
X46906904Y-106993333D02*
X47049761Y-107040952D01*
X47049761Y-107040952D02*
X47145000Y-107136190D01*
X47145000Y-107136190D02*
X47192619Y-107279047D01*
X47192619Y-107279047D02*
X47192619Y-107374285D01*
X46287857Y-106564761D02*
X46240238Y-106517142D01*
X46240238Y-106517142D02*
X46192619Y-106421904D01*
X46192619Y-106421904D02*
X46192619Y-106183809D01*
X46192619Y-106183809D02*
X46240238Y-106088571D01*
X46240238Y-106088571D02*
X46287857Y-106040952D01*
X46287857Y-106040952D02*
X46383095Y-105993333D01*
X46383095Y-105993333D02*
X46478333Y-105993333D01*
X46478333Y-105993333D02*
X46621190Y-106040952D01*
X46621190Y-106040952D02*
X47192619Y-106612380D01*
X47192619Y-106612380D02*
X47192619Y-105993333D01*
%TO.C,H3*%
X131318095Y-25202619D02*
X131318095Y-24202619D01*
X131318095Y-24678809D02*
X131889523Y-24678809D01*
X131889523Y-25202619D02*
X131889523Y-24202619D01*
X132270476Y-24202619D02*
X132889523Y-24202619D01*
X132889523Y-24202619D02*
X132556190Y-24583571D01*
X132556190Y-24583571D02*
X132699047Y-24583571D01*
X132699047Y-24583571D02*
X132794285Y-24631190D01*
X132794285Y-24631190D02*
X132841904Y-24678809D01*
X132841904Y-24678809D02*
X132889523Y-24774047D01*
X132889523Y-24774047D02*
X132889523Y-25012142D01*
X132889523Y-25012142D02*
X132841904Y-25107380D01*
X132841904Y-25107380D02*
X132794285Y-25155000D01*
X132794285Y-25155000D02*
X132699047Y-25202619D01*
X132699047Y-25202619D02*
X132413333Y-25202619D01*
X132413333Y-25202619D02*
X132318095Y-25155000D01*
X132318095Y-25155000D02*
X132270476Y-25107380D01*
%TO.C,C2*%
X111593333Y-65819880D02*
X111545714Y-65867500D01*
X111545714Y-65867500D02*
X111402857Y-65915119D01*
X111402857Y-65915119D02*
X111307619Y-65915119D01*
X111307619Y-65915119D02*
X111164762Y-65867500D01*
X111164762Y-65867500D02*
X111069524Y-65772261D01*
X111069524Y-65772261D02*
X111021905Y-65677023D01*
X111021905Y-65677023D02*
X110974286Y-65486547D01*
X110974286Y-65486547D02*
X110974286Y-65343690D01*
X110974286Y-65343690D02*
X111021905Y-65153214D01*
X111021905Y-65153214D02*
X111069524Y-65057976D01*
X111069524Y-65057976D02*
X111164762Y-64962738D01*
X111164762Y-64962738D02*
X111307619Y-64915119D01*
X111307619Y-64915119D02*
X111402857Y-64915119D01*
X111402857Y-64915119D02*
X111545714Y-64962738D01*
X111545714Y-64962738D02*
X111593333Y-65010357D01*
X111974286Y-65010357D02*
X112021905Y-64962738D01*
X112021905Y-64962738D02*
X112117143Y-64915119D01*
X112117143Y-64915119D02*
X112355238Y-64915119D01*
X112355238Y-64915119D02*
X112450476Y-64962738D01*
X112450476Y-64962738D02*
X112498095Y-65010357D01*
X112498095Y-65010357D02*
X112545714Y-65105595D01*
X112545714Y-65105595D02*
X112545714Y-65200833D01*
X112545714Y-65200833D02*
X112498095Y-65343690D01*
X112498095Y-65343690D02*
X111926667Y-65915119D01*
X111926667Y-65915119D02*
X112545714Y-65915119D01*
%TO.C,R5*%
X61743333Y-100142619D02*
X61410000Y-99666428D01*
X61171905Y-100142619D02*
X61171905Y-99142619D01*
X61171905Y-99142619D02*
X61552857Y-99142619D01*
X61552857Y-99142619D02*
X61648095Y-99190238D01*
X61648095Y-99190238D02*
X61695714Y-99237857D01*
X61695714Y-99237857D02*
X61743333Y-99333095D01*
X61743333Y-99333095D02*
X61743333Y-99475952D01*
X61743333Y-99475952D02*
X61695714Y-99571190D01*
X61695714Y-99571190D02*
X61648095Y-99618809D01*
X61648095Y-99618809D02*
X61552857Y-99666428D01*
X61552857Y-99666428D02*
X61171905Y-99666428D01*
X62648095Y-99142619D02*
X62171905Y-99142619D01*
X62171905Y-99142619D02*
X62124286Y-99618809D01*
X62124286Y-99618809D02*
X62171905Y-99571190D01*
X62171905Y-99571190D02*
X62267143Y-99523571D01*
X62267143Y-99523571D02*
X62505238Y-99523571D01*
X62505238Y-99523571D02*
X62600476Y-99571190D01*
X62600476Y-99571190D02*
X62648095Y-99618809D01*
X62648095Y-99618809D02*
X62695714Y-99714047D01*
X62695714Y-99714047D02*
X62695714Y-99952142D01*
X62695714Y-99952142D02*
X62648095Y-100047380D01*
X62648095Y-100047380D02*
X62600476Y-100095000D01*
X62600476Y-100095000D02*
X62505238Y-100142619D01*
X62505238Y-100142619D02*
X62267143Y-100142619D01*
X62267143Y-100142619D02*
X62171905Y-100095000D01*
X62171905Y-100095000D02*
X62124286Y-100047380D01*
D11*
%TO.C,R4*%
X110040000Y-97200000D02*
X116040000Y-97200000D01*
X110040000Y-106000000D02*
X116040000Y-106000000D01*
X110007350Y-97222440D02*
G75*
G03*
X110040000Y-105999999I3032650J-4377560D01*
G01*
X116072650Y-105977560D02*
G75*
G03*
X116040000Y-97200001I-3032650J4377560D01*
G01*
%TO.C,U3*%
X110550000Y-57040000D02*
X90110000Y-57040000D01*
X90110000Y-57040000D02*
X90110000Y-62340000D01*
X110550000Y-58690000D02*
X110550000Y-57040000D01*
X110550000Y-62340000D02*
X110550000Y-60690000D01*
X90110000Y-62340000D02*
X110550000Y-62340000D01*
X110550000Y-58690000D02*
G75*
G03*
X110550000Y-60690000I0J-1000000D01*
G01*
%TO.C,C1*%
X112510000Y-74242500D02*
X114010000Y-74242500D01*
X113120000Y-76442500D02*
X114260000Y-76442500D01*
X113260000Y-73492500D02*
X113260000Y-74992500D01*
X114260000Y-74072500D02*
X114260000Y-78812500D01*
X114260000Y-74072500D02*
X115760000Y-74072500D01*
X114260000Y-78812500D02*
X115760000Y-78812500D01*
X115760000Y-74072500D02*
X116510000Y-74822500D01*
X115760000Y-78812500D02*
X116510000Y-78062500D01*
X116510000Y-74822500D02*
X117260000Y-74072500D01*
X116510000Y-78062500D02*
X117260000Y-78812500D01*
X117260000Y-74072500D02*
X124500000Y-74072500D01*
X117260000Y-78812500D02*
X124500000Y-78812500D01*
X124500000Y-74072500D02*
X124500000Y-78812500D01*
X125640000Y-76442500D02*
X124500000Y-76442500D01*
%TO.C,U2*%
X82610000Y-54500000D02*
X62170000Y-54500000D01*
X62170000Y-54500000D02*
X62170000Y-59800000D01*
X82610000Y-56150000D02*
X82610000Y-54500000D01*
X82610000Y-59800000D02*
X82610000Y-58150000D01*
X62170000Y-59800000D02*
X82610000Y-59800000D01*
X82610000Y-56150000D02*
G75*
G03*
X82610000Y-58150000I0J-1000000D01*
G01*
%TO.C,J6*%
X72290000Y-107010000D02*
X74290000Y-107010000D01*
X72290000Y-108260000D02*
X72290000Y-107010000D01*
X72680000Y-107400000D02*
X72680000Y-114870000D01*
X72680000Y-114870000D02*
X81300000Y-114870000D01*
X73740000Y-108360000D02*
X76740000Y-108360000D01*
X73740000Y-109710000D02*
X74490000Y-109710000D01*
X73740000Y-114010000D02*
X73740000Y-109710000D01*
X73990000Y-109360000D02*
X73740000Y-108360000D01*
X74490000Y-109360000D02*
X73990000Y-109360000D01*
X74490000Y-109710000D02*
X74490000Y-109360000D01*
X74490000Y-114010000D02*
X73740000Y-114010000D01*
X75990000Y-109360000D02*
X75990000Y-109710000D01*
X75990000Y-109710000D02*
X76740000Y-109710000D01*
X76490000Y-109360000D02*
X75990000Y-109360000D01*
X76740000Y-108360000D02*
X76490000Y-109360000D01*
X76740000Y-109710000D02*
X76740000Y-114010000D01*
X76740000Y-114010000D02*
X75990000Y-114010000D01*
X77240000Y-108360000D02*
X80240000Y-108360000D01*
X77240000Y-109710000D02*
X77990000Y-109710000D01*
X77240000Y-114010000D02*
X77240000Y-109710000D01*
X77490000Y-109360000D02*
X77240000Y-108360000D01*
X77990000Y-109360000D02*
X77490000Y-109360000D01*
X77990000Y-109710000D02*
X77990000Y-109360000D01*
X77990000Y-114010000D02*
X77240000Y-114010000D01*
X79490000Y-109360000D02*
X79490000Y-109710000D01*
X79490000Y-109710000D02*
X80240000Y-109710000D01*
X79990000Y-109360000D02*
X79490000Y-109360000D01*
X80240000Y-108360000D02*
X79990000Y-109360000D01*
X80240000Y-109710000D02*
X80240000Y-114010000D01*
X80240000Y-114010000D02*
X79490000Y-114010000D01*
X81300000Y-107400000D02*
X72680000Y-107400000D01*
X81300000Y-114870000D02*
X81300000Y-107400000D01*
X75989647Y-114009845D02*
G75*
G03*
X74490000Y-114010000I-749647J-1700155D01*
G01*
X79489647Y-114009845D02*
G75*
G03*
X77990000Y-114010000I-749647J-1700155D01*
G01*
%TO.C,R6*%
X61377133Y-105980001D02*
G75*
G03*
X61280095Y-107429358I-417133J-699999D01*
G01*
%TO.C,R3*%
X110040000Y-41320000D02*
X116040000Y-41320000D01*
X110040000Y-50120000D02*
X116040000Y-50120000D01*
X110007350Y-41342440D02*
G75*
G03*
X110040000Y-50119999I3032650J-4377560D01*
G01*
X116072650Y-50097560D02*
G75*
G03*
X116040000Y-41320001I-3032650J4377560D01*
G01*
%TO.C,L1*%
X89900000Y-68880000D02*
X90520000Y-68880000D01*
X90520000Y-67410000D02*
X90520000Y-70350000D01*
X90520000Y-70350000D02*
X97360000Y-70350000D01*
X97360000Y-67410000D02*
X90520000Y-67410000D01*
X97360000Y-70350000D02*
X97360000Y-67410000D01*
X97980000Y-68880000D02*
X97360000Y-68880000D01*
%TO.C,J1*%
X55970000Y-27330000D02*
X50770000Y-27330000D01*
X55970000Y-27330000D02*
X55970000Y-35960000D01*
X55850000Y-27330000D02*
X55850000Y-35960000D01*
X55731905Y-27330000D02*
X55731905Y-35960000D01*
X55613810Y-27330000D02*
X55613810Y-35960000D01*
X55495715Y-27330000D02*
X55495715Y-35960000D01*
X55377620Y-27330000D02*
X55377620Y-35960000D01*
X55259525Y-27330000D02*
X55259525Y-35960000D01*
X55141430Y-27330000D02*
X55141430Y-35960000D01*
X55023335Y-27330000D02*
X55023335Y-35960000D01*
X54905240Y-27330000D02*
X54905240Y-35960000D01*
X54787145Y-27330000D02*
X54787145Y-35960000D01*
X54669050Y-27330000D02*
X54669050Y-35960000D01*
X54550955Y-27330000D02*
X54550955Y-35960000D01*
X54432860Y-27330000D02*
X54432860Y-35960000D01*
X54314765Y-27330000D02*
X54314765Y-35960000D01*
X54196670Y-27330000D02*
X54196670Y-35960000D01*
X54078575Y-27330000D02*
X54078575Y-35960000D01*
X53960480Y-27330000D02*
X53960480Y-35960000D01*
X53842385Y-27330000D02*
X53842385Y-35960000D01*
X53724290Y-27330000D02*
X53724290Y-35960000D01*
X53606195Y-27330000D02*
X53606195Y-35960000D01*
X53488100Y-27330000D02*
X53488100Y-35960000D01*
X53370000Y-27330000D02*
X53370000Y-35960000D01*
X50770000Y-27330000D02*
X50770000Y-35960000D01*
X55970000Y-35960000D02*
X50770000Y-35960000D01*
X55000000Y-35960000D02*
X55000000Y-36310000D01*
X54280000Y-35960000D02*
X54280000Y-36310000D01*
X52460000Y-35960000D02*
X52460000Y-36370000D01*
X51740000Y-35960000D02*
X51740000Y-36370000D01*
X55970000Y-37420000D02*
X55970000Y-38530000D01*
X55970000Y-38530000D02*
X54640000Y-38530000D01*
%TO.C,U1*%
X90539000Y-95790000D02*
X90539000Y-100431000D01*
X90539000Y-95790000D02*
X100780000Y-95790000D01*
X90539000Y-97300000D02*
X100780000Y-97300000D01*
X90539000Y-100431000D02*
X100780000Y-100431000D01*
X93810000Y-95790000D02*
X93810000Y-97300000D01*
X97510000Y-95790000D02*
X97510000Y-97300000D01*
X100780000Y-95790000D02*
X100780000Y-100431000D01*
%TO.C,R1*%
X91790000Y-78310000D02*
X106330000Y-78310000D01*
X91790000Y-79640000D02*
X91790000Y-78310000D01*
X91790000Y-82920000D02*
X91790000Y-84250000D01*
X91790000Y-84250000D02*
X106330000Y-84250000D01*
X106330000Y-78310000D02*
X106330000Y-79640000D01*
X106330000Y-84250000D02*
X106330000Y-82920000D01*
%TO.C,R2*%
X61327133Y-94580001D02*
G75*
G03*
X61230095Y-96029358I-417133J-699999D01*
G01*
%TO.C,J5*%
X116145000Y-59275000D02*
X116840000Y-59275000D01*
X116145000Y-59960000D02*
X116145000Y-59275000D01*
X116145000Y-60645000D02*
X116145000Y-62520000D01*
X116145000Y-60645000D02*
X116231724Y-60645000D01*
X116145000Y-62520000D02*
X116445507Y-62520000D01*
X117234493Y-62520000D02*
X117535000Y-62520000D01*
X117448276Y-60645000D02*
X117535000Y-60645000D01*
X117535000Y-60645000D02*
X117535000Y-62520000D01*
%TO.C,A1*%
X41780000Y-44320000D02*
X41780000Y-46990000D01*
X41780000Y-49530000D02*
X41780000Y-87760000D01*
X41780000Y-87760000D02*
X46860000Y-87760000D01*
X44450000Y-46990000D02*
X41780000Y-46990000D01*
X44450000Y-49530000D02*
X41780000Y-49530000D01*
X44450000Y-49530000D02*
X44450000Y-46990000D01*
X44450000Y-49530000D02*
X44450000Y-85090000D01*
X44450000Y-85090000D02*
X41780000Y-85090000D01*
X46860000Y-79880000D02*
X54740000Y-79880000D01*
X46860000Y-90300000D02*
X46860000Y-79880000D01*
X54740000Y-79880000D02*
X54740000Y-90300000D01*
X54740000Y-90300000D02*
X46860000Y-90300000D01*
X57150000Y-46990000D02*
X57150000Y-85090000D01*
X57150000Y-46990000D02*
X59820000Y-46990000D01*
X57150000Y-85090000D02*
X59820000Y-85090000D01*
X59820000Y-44320000D02*
X41780000Y-44320000D01*
X59820000Y-87760000D02*
X54740000Y-87760000D01*
X59820000Y-87760000D02*
X59820000Y-44320000D01*
%TO.C,J4*%
X98970000Y-119990000D02*
X104170000Y-119990000D01*
X98970000Y-119990000D02*
X98970000Y-111360000D01*
X99090000Y-119990000D02*
X99090000Y-111360000D01*
X99208095Y-119990000D02*
X99208095Y-111360000D01*
X99326190Y-119990000D02*
X99326190Y-111360000D01*
X99444285Y-119990000D02*
X99444285Y-111360000D01*
X99562380Y-119990000D02*
X99562380Y-111360000D01*
X99680475Y-119990000D02*
X99680475Y-111360000D01*
X99798570Y-119990000D02*
X99798570Y-111360000D01*
X99916665Y-119990000D02*
X99916665Y-111360000D01*
X100034760Y-119990000D02*
X100034760Y-111360000D01*
X100152855Y-119990000D02*
X100152855Y-111360000D01*
X100270950Y-119990000D02*
X100270950Y-111360000D01*
X100389045Y-119990000D02*
X100389045Y-111360000D01*
X100507140Y-119990000D02*
X100507140Y-111360000D01*
X100625235Y-119990000D02*
X100625235Y-111360000D01*
X100743330Y-119990000D02*
X100743330Y-111360000D01*
X100861425Y-119990000D02*
X100861425Y-111360000D01*
X100979520Y-119990000D02*
X100979520Y-111360000D01*
X101097615Y-119990000D02*
X101097615Y-111360000D01*
X101215710Y-119990000D02*
X101215710Y-111360000D01*
X101333805Y-119990000D02*
X101333805Y-111360000D01*
X101451900Y-119990000D02*
X101451900Y-111360000D01*
X101570000Y-119990000D02*
X101570000Y-111360000D01*
X104170000Y-119990000D02*
X104170000Y-111360000D01*
X98970000Y-111360000D02*
X104170000Y-111360000D01*
X99940000Y-111360000D02*
X99940000Y-111010000D01*
X100660000Y-111360000D02*
X100660000Y-111010000D01*
X102480000Y-111360000D02*
X102480000Y-110950000D01*
X103200000Y-111360000D02*
X103200000Y-110950000D01*
X98970000Y-109900000D02*
X98970000Y-108790000D01*
X98970000Y-108790000D02*
X100300000Y-108790000D01*
%TO.C,D1*%
X72400000Y-100310000D02*
X73310000Y-100310000D01*
X73310000Y-97590000D02*
X73310000Y-103030000D01*
X73310000Y-103030000D02*
X83050000Y-103030000D01*
X74735000Y-97590000D02*
X74735000Y-103030000D01*
X74855000Y-97590000D02*
X74855000Y-103030000D01*
X74975000Y-97590000D02*
X74975000Y-103030000D01*
X83050000Y-97590000D02*
X73310000Y-97590000D01*
X83050000Y-103030000D02*
X83050000Y-97590000D01*
X83960000Y-100310000D02*
X83050000Y-100310000D01*
%TO.C,J3*%
X80670000Y-27850000D02*
X80670000Y-33050000D01*
X80670000Y-27850000D02*
X89300000Y-27850000D01*
X80670000Y-27970000D02*
X89300000Y-27970000D01*
X80670000Y-28088095D02*
X89300000Y-28088095D01*
X80670000Y-28206190D02*
X89300000Y-28206190D01*
X80670000Y-28324285D02*
X89300000Y-28324285D01*
X80670000Y-28442380D02*
X89300000Y-28442380D01*
X80670000Y-28560475D02*
X89300000Y-28560475D01*
X80670000Y-28678570D02*
X89300000Y-28678570D01*
X80670000Y-28796665D02*
X89300000Y-28796665D01*
X80670000Y-28914760D02*
X89300000Y-28914760D01*
X80670000Y-29032855D02*
X89300000Y-29032855D01*
X80670000Y-29150950D02*
X89300000Y-29150950D01*
X80670000Y-29269045D02*
X89300000Y-29269045D01*
X80670000Y-29387140D02*
X89300000Y-29387140D01*
X80670000Y-29505235D02*
X89300000Y-29505235D01*
X80670000Y-29623330D02*
X89300000Y-29623330D01*
X80670000Y-29741425D02*
X89300000Y-29741425D01*
X80670000Y-29859520D02*
X89300000Y-29859520D01*
X80670000Y-29977615D02*
X89300000Y-29977615D01*
X80670000Y-30095710D02*
X89300000Y-30095710D01*
X80670000Y-30213805D02*
X89300000Y-30213805D01*
X80670000Y-30331900D02*
X89300000Y-30331900D01*
X80670000Y-30450000D02*
X89300000Y-30450000D01*
X80670000Y-33050000D02*
X89300000Y-33050000D01*
X89300000Y-27850000D02*
X89300000Y-33050000D01*
X89300000Y-28820000D02*
X89650000Y-28820000D01*
X89300000Y-29540000D02*
X89650000Y-29540000D01*
X89300000Y-31360000D02*
X89710000Y-31360000D01*
X89300000Y-32080000D02*
X89710000Y-32080000D01*
X90760000Y-27850000D02*
X91870000Y-27850000D01*
X91870000Y-27850000D02*
X91870000Y-29180000D01*
%TO.C,J2*%
X48170000Y-112370000D02*
X53370000Y-112370000D01*
X48170000Y-112370000D02*
X48170000Y-103740000D01*
X48290000Y-112370000D02*
X48290000Y-103740000D01*
X48408095Y-112370000D02*
X48408095Y-103740000D01*
X48526190Y-112370000D02*
X48526190Y-103740000D01*
X48644285Y-112370000D02*
X48644285Y-103740000D01*
X48762380Y-112370000D02*
X48762380Y-103740000D01*
X48880475Y-112370000D02*
X48880475Y-103740000D01*
X48998570Y-112370000D02*
X48998570Y-103740000D01*
X49116665Y-112370000D02*
X49116665Y-103740000D01*
X49234760Y-112370000D02*
X49234760Y-103740000D01*
X49352855Y-112370000D02*
X49352855Y-103740000D01*
X49470950Y-112370000D02*
X49470950Y-103740000D01*
X49589045Y-112370000D02*
X49589045Y-103740000D01*
X49707140Y-112370000D02*
X49707140Y-103740000D01*
X49825235Y-112370000D02*
X49825235Y-103740000D01*
X49943330Y-112370000D02*
X49943330Y-103740000D01*
X50061425Y-112370000D02*
X50061425Y-103740000D01*
X50179520Y-112370000D02*
X50179520Y-103740000D01*
X50297615Y-112370000D02*
X50297615Y-103740000D01*
X50415710Y-112370000D02*
X50415710Y-103740000D01*
X50533805Y-112370000D02*
X50533805Y-103740000D01*
X50651900Y-112370000D02*
X50651900Y-103740000D01*
X50770000Y-112370000D02*
X50770000Y-103740000D01*
X53370000Y-112370000D02*
X53370000Y-103740000D01*
X48170000Y-103740000D02*
X53370000Y-103740000D01*
X49140000Y-103740000D02*
X49140000Y-103390000D01*
X49860000Y-103740000D02*
X49860000Y-103390000D01*
X51680000Y-103740000D02*
X51680000Y-103330000D01*
X52400000Y-103740000D02*
X52400000Y-103330000D01*
X48170000Y-102280000D02*
X48170000Y-101170000D01*
X48170000Y-101170000D02*
X49500000Y-101170000D01*
%TO.C,C2*%
X104890000Y-66622500D02*
X106390000Y-66622500D01*
X105500000Y-68822500D02*
X106640000Y-68822500D01*
X105640000Y-65872500D02*
X105640000Y-67372500D01*
X106640000Y-66452500D02*
X106640000Y-71192500D01*
X106640000Y-66452500D02*
X108140000Y-66452500D01*
X106640000Y-71192500D02*
X108140000Y-71192500D01*
X108140000Y-66452500D02*
X108890000Y-67202500D01*
X108140000Y-71192500D02*
X108890000Y-70442500D01*
X108890000Y-67202500D02*
X109640000Y-66452500D01*
X108890000Y-70442500D02*
X109640000Y-71192500D01*
X109640000Y-66452500D02*
X116880000Y-66452500D01*
X109640000Y-71192500D02*
X116880000Y-71192500D01*
X116880000Y-66452500D02*
X116880000Y-71192500D01*
X118020000Y-68822500D02*
X116880000Y-68822500D01*
%TO.C,R5*%
X61377133Y-100900001D02*
G75*
G03*
X61280095Y-102349358I-417133J-699999D01*
G01*
%TD*%
M02*
