%TF.GenerationSoftware,KiCad,Pcbnew,7.0.2*%
%TF.CreationDate,2023-04-22T23:51:56+05:30*%
%TF.ProjectId,Final circuit pcb file,46696e61-6c20-4636-9972-637569742070,rev?*%
%TF.SameCoordinates,Original*%
%TF.FileFunction,Copper,L2,Bot*%
%TF.FilePolarity,Positive*%
%FSLAX46Y46*%
G04 Gerber Fmt 4.6, Leading zero omitted, Abs format (unit mm)*
G04 Created by KiCad (PCBNEW 7.0.2) date 2023-04-22 23:51:56*
%MOMM*%
%LPD*%
G01*
G04 APERTURE LIST*
G04 Aperture macros list*
%AMRoundRect*
0 Rectangle with rounded corners*
0 $1 Rounding radius*
0 $2 $3 $4 $5 $6 $7 $8 $9 X,Y pos of 4 corners*
0 Add a 4 corners polygon primitive as box body*
4,1,4,$2,$3,$4,$5,$6,$7,$8,$9,$2,$3,0*
0 Add four circle primitives for the rounded corners*
1,1,$1+$1,$2,$3*
1,1,$1+$1,$4,$5*
1,1,$1+$1,$6,$7*
1,1,$1+$1,$8,$9*
0 Add four rect primitives between the rounded corners*
20,1,$1+$1,$2,$3,$4,$5,0*
20,1,$1+$1,$4,$5,$6,$7,0*
20,1,$1+$1,$6,$7,$8,$9,0*
20,1,$1+$1,$8,$9,$2,$3,0*%
G04 Aperture macros list end*
%TA.AperFunction,ComponentPad*%
%ADD10C,1.600000*%
%TD*%
%TA.AperFunction,ComponentPad*%
%ADD11R,1.600000X1.600000*%
%TD*%
%TA.AperFunction,ComponentPad*%
%ADD12O,1.600000X1.600000*%
%TD*%
%TA.AperFunction,ComponentPad*%
%ADD13R,2.000000X2.000000*%
%TD*%
%TA.AperFunction,ComponentPad*%
%ADD14O,2.000000X2.000000*%
%TD*%
%TA.AperFunction,ComponentPad*%
%ADD15RoundRect,0.250000X-0.650000X-1.550000X0.650000X-1.550000X0.650000X1.550000X-0.650000X1.550000X0*%
%TD*%
%TA.AperFunction,ComponentPad*%
%ADD16O,1.800000X3.600000*%
%TD*%
%TA.AperFunction,ComponentPad*%
%ADD17C,1.400000*%
%TD*%
%TA.AperFunction,ComponentPad*%
%ADD18O,1.400000X1.400000*%
%TD*%
%TA.AperFunction,ComponentPad*%
%ADD19R,1.700000X1.700000*%
%TD*%
%TA.AperFunction,ComponentPad*%
%ADD20O,1.700000X1.700000*%
%TD*%
%TA.AperFunction,ComponentPad*%
%ADD21R,1.275000X1.800000*%
%TD*%
%TA.AperFunction,ComponentPad*%
%ADD22O,1.275000X1.800000*%
%TD*%
%TA.AperFunction,ComponentPad*%
%ADD23C,2.800000*%
%TD*%
%TA.AperFunction,ComponentPad*%
%ADD24O,2.800000X2.800000*%
%TD*%
%TA.AperFunction,ComponentPad*%
%ADD25R,0.850000X0.850000*%
%TD*%
%TA.AperFunction,ComponentPad*%
%ADD26O,0.850000X0.850000*%
%TD*%
%TA.AperFunction,ComponentPad*%
%ADD27R,3.200000X3.200000*%
%TD*%
%TA.AperFunction,ComponentPad*%
%ADD28O,3.200000X3.200000*%
%TD*%
G04 APERTURE END LIST*
D10*
%TO.P,R4,1*%
%TO.N,Net-(A1-+5V)*%
X109240000Y-101600000D03*
%TO.P,R4,2*%
%TO.N,GND*%
X116840000Y-101600000D03*
%TD*%
D11*
%TO.P,U3,1,EN1\u002C2*%
%TO.N,Net-(A1-D6)*%
X109220000Y-55880000D03*
D12*
%TO.P,U3,2,1A*%
%TO.N,Net-(A1-D4)*%
X106680000Y-55880000D03*
%TO.P,U3,3,1Y*%
%TO.N,Net-(J3-Pin_1)*%
X104140000Y-55880000D03*
%TO.P,U3,4,GND*%
%TO.N,Net-(A1-GND-Pad29)*%
X101600000Y-55880000D03*
%TO.P,U3,5,GND*%
X99060000Y-55880000D03*
%TO.P,U3,6,2Y*%
%TO.N,Net-(J3-Pin_2)*%
X96520000Y-55880000D03*
%TO.P,U3,7,2A*%
%TO.N,Net-(A1-D4)*%
X93980000Y-55880000D03*
%TO.P,U3,8,VCC2*%
%TO.N,Net-(A1-VIN)*%
X91440000Y-55880000D03*
%TO.P,U3,9,EN3\u002C4*%
%TO.N,Net-(A1-D9)*%
X91440000Y-63500000D03*
%TO.P,U3,10,3A*%
%TO.N,Net-(A1-D8)*%
X93980000Y-63500000D03*
%TO.P,U3,11,3Y*%
%TO.N,Net-(J4-Pin_1)*%
X96520000Y-63500000D03*
%TO.P,U3,12,GND*%
%TO.N,Net-(A1-GND-Pad29)*%
X99060000Y-63500000D03*
%TO.P,U3,13,GND*%
X101600000Y-63500000D03*
%TO.P,U3,14,4Y*%
%TO.N,Net-(J4-Pin_2)*%
X104140000Y-63500000D03*
%TO.P,U3,15,4A*%
%TO.N,Net-(A1-D3)*%
X106680000Y-63500000D03*
%TO.P,U3,16,VCC1*%
%TO.N,Net-(A1-VIN)*%
X109220000Y-63500000D03*
%TD*%
D13*
%TO.P,C1,1*%
%TO.N,+12P*%
X111880000Y-76442500D03*
D14*
%TO.P,C1,2*%
%TO.N,GND*%
X126880000Y-76442500D03*
%TD*%
D11*
%TO.P,U2,1,EN1\u002C2*%
%TO.N,Net-(A1-D6)*%
X81280000Y-53340000D03*
D12*
%TO.P,U2,2,1A*%
%TO.N,Net-(A1-D4)*%
X78740000Y-53340000D03*
%TO.P,U2,3,1Y*%
%TO.N,Net-(J1-Pin_1)*%
X76200000Y-53340000D03*
%TO.P,U2,4,GND*%
%TO.N,Net-(A1-GND-Pad29)*%
X73660000Y-53340000D03*
%TO.P,U2,5,GND*%
X71120000Y-53340000D03*
%TO.P,U2,6,2Y*%
%TO.N,Net-(J1-Pin_2)*%
X68580000Y-53340000D03*
%TO.P,U2,7,2A*%
%TO.N,Net-(A1-D4)*%
X66040000Y-53340000D03*
%TO.P,U2,8,VCC2*%
%TO.N,Net-(A1-VIN)*%
X63500000Y-53340000D03*
%TO.P,U2,9,EN3\u002C4*%
%TO.N,Net-(A1-D9)*%
X63500000Y-60960000D03*
%TO.P,U2,10,3A*%
%TO.N,Net-(A1-D8)*%
X66040000Y-60960000D03*
%TO.P,U2,11,3Y*%
%TO.N,Net-(J2-Pin_1)*%
X68580000Y-60960000D03*
%TO.P,U2,12,GND*%
%TO.N,Net-(A1-GND-Pad29)*%
X71120000Y-60960000D03*
%TO.P,U2,13,GND*%
X73660000Y-60960000D03*
%TO.P,U2,14,4Y*%
%TO.N,Net-(J2-Pin_2)*%
X76200000Y-60960000D03*
%TO.P,U2,15,4A*%
%TO.N,Net-(A1-D3)*%
X78740000Y-60960000D03*
%TO.P,U2,16,VCC1*%
%TO.N,Net-(A1-VIN)*%
X81280000Y-60960000D03*
%TD*%
D15*
%TO.P,J6,1,Pin_1*%
%TO.N,GND*%
X75240000Y-111760000D03*
D16*
%TO.P,J6,2,Pin_2*%
%TO.N,+12P*%
X78740000Y-111760000D03*
%TD*%
D17*
%TO.P,R6,1*%
%TO.N,Net-(R5-Pad2)*%
X60960000Y-106680000D03*
D18*
%TO.P,R6,2*%
%TO.N,GND*%
X62860000Y-106680000D03*
%TD*%
D10*
%TO.P,R3,1*%
%TO.N,Net-(A1-+5V)*%
X109240000Y-45720000D03*
%TO.P,R3,2*%
%TO.N,Net-(A1-A1)*%
X116840000Y-45720000D03*
%TD*%
%TO.P,L1,1,1*%
%TO.N,Net-(D1-K)*%
X88860000Y-68880000D03*
D12*
%TO.P,L1,2,2*%
%TO.N,Net-(A1-VIN)*%
X99020000Y-68880000D03*
%TD*%
D19*
%TO.P,J1,1,Pin_1*%
%TO.N,Net-(J1-Pin_1)*%
X54640000Y-37420000D03*
D20*
%TO.P,J1,2,Pin_2*%
%TO.N,Net-(J1-Pin_2)*%
X52100000Y-37420000D03*
%TD*%
D21*
%TO.P,U1,1,VIN*%
%TO.N,+12P*%
X92260000Y-99060000D03*
D22*
%TO.P,U1,2,OUT*%
%TO.N,Net-(D1-K)*%
X93960000Y-99060000D03*
%TO.P,U1,3,GND*%
%TO.N,GND*%
X95660000Y-99060000D03*
%TO.P,U1,4,FB*%
%TO.N,Net-(U1-FB)*%
X97360000Y-99060000D03*
%TO.P,U1,5,~{ON}/OFF*%
%TO.N,GND*%
X99060000Y-99060000D03*
%TD*%
D23*
%TO.P,R1,1*%
%TO.N,Net-(A1-VIN)*%
X91440000Y-81280000D03*
D24*
%TO.P,R1,2*%
%TO.N,Net-(U1-FB)*%
X106680000Y-81280000D03*
%TD*%
D17*
%TO.P,R2,1*%
%TO.N,Net-(U1-FB)*%
X60910000Y-95280000D03*
D18*
%TO.P,R2,2*%
%TO.N,GND*%
X62810000Y-95280000D03*
%TD*%
D25*
%TO.P,J5,1,Pin_1*%
%TO.N,GND*%
X116840000Y-59960000D03*
D26*
%TO.P,J5,2,Pin_2*%
%TO.N,Net-(A1-+5V)*%
X116840000Y-60960000D03*
%TO.P,J5,3,Pin_3*%
%TO.N,Net-(A1-D10)*%
X116840000Y-61960000D03*
%TD*%
D11*
%TO.P,A1,1,TX1*%
%TO.N,unconnected-(A1-TX1-Pad1)*%
X43180000Y-48260000D03*
D12*
%TO.P,A1,2,RX1*%
%TO.N,unconnected-(A1-RX1-Pad2)*%
X43180000Y-50800000D03*
%TO.P,A1,3,~{RESET}*%
%TO.N,unconnected-(A1-~{RESET}-Pad3)*%
X43180000Y-53340000D03*
%TO.P,A1,4,GND*%
%TO.N,Net-(A1-GND-Pad29)*%
X43180000Y-55880000D03*
%TO.P,A1,5,D2*%
%TO.N,unconnected-(A1-D2-Pad5)*%
X43180000Y-58420000D03*
%TO.P,A1,6,D3*%
%TO.N,Net-(A1-D3)*%
X43180000Y-60960000D03*
%TO.P,A1,7,D4*%
%TO.N,Net-(A1-D4)*%
X43180000Y-63500000D03*
%TO.P,A1,8,D5*%
%TO.N,unconnected-(A1-D5-Pad8)*%
X43180000Y-66040000D03*
%TO.P,A1,9,D6*%
%TO.N,Net-(A1-D6)*%
X43180000Y-68580000D03*
%TO.P,A1,10,D7*%
%TO.N,Net-(A1-D4)*%
X43180000Y-71120000D03*
%TO.P,A1,11,D8*%
%TO.N,Net-(A1-D8)*%
X43180000Y-73660000D03*
%TO.P,A1,12,D9*%
%TO.N,Net-(A1-D9)*%
X43180000Y-76200000D03*
%TO.P,A1,13,D10*%
%TO.N,Net-(A1-D10)*%
X43180000Y-78740000D03*
%TO.P,A1,14,MOSI*%
%TO.N,unconnected-(A1-MOSI-Pad14)*%
X43180000Y-81280000D03*
%TO.P,A1,15,MISO*%
%TO.N,unconnected-(A1-MISO-Pad15)*%
X43180000Y-83820000D03*
%TO.P,A1,16,SCK*%
%TO.N,unconnected-(A1-SCK-Pad16)*%
X58420000Y-83820000D03*
%TO.P,A1,17,3V3*%
%TO.N,unconnected-(A1-3V3-Pad17)*%
X58420000Y-81280000D03*
%TO.P,A1,18,AREF*%
%TO.N,unconnected-(A1-AREF-Pad18)*%
X58420000Y-78740000D03*
%TO.P,A1,19,A0*%
%TO.N,GND*%
X58420000Y-76200000D03*
%TO.P,A1,20,A1*%
%TO.N,Net-(A1-A1)*%
X58420000Y-73660000D03*
%TO.P,A1,21,A2*%
%TO.N,unconnected-(A1-A2-Pad21)*%
X58420000Y-71120000D03*
%TO.P,A1,22,A3*%
%TO.N,unconnected-(A1-A3-Pad22)*%
X58420000Y-68580000D03*
%TO.P,A1,23,SDA/A4*%
%TO.N,unconnected-(A1-SDA{slash}A4-Pad23)*%
X58420000Y-66040000D03*
%TO.P,A1,24,SCL/A5*%
%TO.N,unconnected-(A1-SCL{slash}A5-Pad24)*%
X58420000Y-63500000D03*
%TO.P,A1,25,A6*%
%TO.N,unconnected-(A1-A6-Pad25)*%
X58420000Y-60960000D03*
%TO.P,A1,26,A7*%
%TO.N,unconnected-(A1-A7-Pad26)*%
X58420000Y-58420000D03*
%TO.P,A1,27,+5V*%
%TO.N,Net-(A1-+5V)*%
X58420000Y-55880000D03*
%TO.P,A1,28,~{RESET}*%
%TO.N,unconnected-(A1-~{RESET}-Pad28)*%
X58420000Y-53340000D03*
%TO.P,A1,29,GND*%
%TO.N,Net-(A1-GND-Pad29)*%
X58420000Y-50800000D03*
%TO.P,A1,30,VIN*%
%TO.N,Net-(A1-VIN)*%
X58420000Y-48260000D03*
%TD*%
D19*
%TO.P,J4,1,Pin_1*%
%TO.N,Net-(J4-Pin_1)*%
X100300000Y-109900000D03*
D20*
%TO.P,J4,2,Pin_2*%
%TO.N,Net-(J4-Pin_2)*%
X102840000Y-109900000D03*
%TD*%
D27*
%TO.P,D1,1,K*%
%TO.N,Net-(D1-K)*%
X70560000Y-100310000D03*
D28*
%TO.P,D1,2,A*%
%TO.N,GND*%
X85800000Y-100310000D03*
%TD*%
D19*
%TO.P,J3,1,Pin_1*%
%TO.N,Net-(J3-Pin_1)*%
X90760000Y-29180000D03*
D20*
%TO.P,J3,2,Pin_2*%
%TO.N,Net-(J3-Pin_2)*%
X90760000Y-31720000D03*
%TD*%
D19*
%TO.P,J2,1,Pin_1*%
%TO.N,Net-(J2-Pin_1)*%
X49500000Y-102280000D03*
D20*
%TO.P,J2,2,Pin_2*%
%TO.N,Net-(J2-Pin_2)*%
X52040000Y-102280000D03*
%TD*%
D13*
%TO.P,C2,1*%
%TO.N,Net-(A1-VIN)*%
X104260000Y-68822500D03*
D14*
%TO.P,C2,2*%
%TO.N,GND*%
X119260000Y-68822500D03*
%TD*%
D17*
%TO.P,R5,1*%
%TO.N,Net-(A1-A1)*%
X60960000Y-101600000D03*
D18*
%TO.P,R5,2*%
%TO.N,Net-(R5-Pad2)*%
X62860000Y-101600000D03*
%TD*%
M02*
